{
    "patcher": {
        "fileversion": 1,
        "appversion": {
            "major": 9,
            "minor": 1,
            "revision": 0,
            "architecture": "x64",
            "modernui": 1
        },
        "classnamespace": "box",
        "rect": [ 723.0, 292.0, 933.0, 589.0 ],
        "boxes": [
            {
                "box": {
                    "contdata": 1,
                    "ghostbar": 70,
                    "id": "obj-74",
                    "maxclass": "multislider",
                    "numinlets": 1,
                    "numoutlets": 2,
                    "orientation": 0,
                    "outlettype": [ "", "" ],
                    "parameter_enable": 0,
                    "patching_rect": [ 479.16664838790894, 112.49999570846558, 133.0, 21.0 ]
                }
            },
            {
                "box": {
                    "id": "obj-73",
                    "maxclass": "button",
                    "numinlets": 1,
                    "numoutlets": 1,
                    "outlettype": [ "bang" ],
                    "parameter_enable": 0,
                    "patching_rect": [ 280.2083226442337, 224.99999141693115, 24.0, 24.0 ]
                }
            },
            {
                "box": {
                    "id": "obj-71",
                    "maxclass": "comment",
                    "numinlets": 1,
                    "numoutlets": 0,
                    "patching_rect": [ 538.5416461229324, 144.79166114330292, 45.0, 20.0 ],
                    "text": "spread"
                }
            },
            {
                "box": {
                    "id": "obj-69",
                    "maxclass": "number",
                    "numinlets": 1,
                    "numoutlets": 2,
                    "outlettype": [ "", "bang" ],
                    "parameter_enable": 0,
                    "patching_rect": [ 236.45832431316376, 32.29166543483734, 50.0, 22.0 ]
                }
            },
            {
                "box": {
                    "id": "obj-67",
                    "linecount": 2,
                    "maxclass": "message",
                    "numinlets": 2,
                    "numoutlets": 1,
                    "outlettype": [ "" ],
                    "patching_rect": [ 236.45832431316376, 65.62499749660492, 55.0, 35.0 ],
                    "text": "dim $1 1, bang"
                }
            },
            {
                "box": {
                    "format": 6,
                    "id": "obj-65",
                    "maxclass": "flonum",
                    "maximum": 1.0,
                    "minimum": 0.0,
                    "numinlets": 1,
                    "numoutlets": 2,
                    "outlettype": [ "", "bang" ],
                    "parameter_enable": 0,
                    "patching_rect": [ 474.999981880188, 145.83332777023315, 50.0, 22.0 ]
                }
            },
            {
                "box": {
                    "id": "obj-63",
                    "maxclass": "newobj",
                    "numinlets": 3,
                    "numoutlets": 1,
                    "outlettype": [ "jit_matrix" ],
                    "patching_rect": [ 324.9999876022339, 191.66665935516357, 90.0, 22.0 ],
                    "text": "LAM.jit.stations"
                }
            },
            {
                "box": {
                    "id": "obj-24",
                    "maxclass": "number",
                    "minimum": 1,
                    "numinlets": 1,
                    "numoutlets": 2,
                    "outlettype": [ "", "bang" ],
                    "parameter_enable": 0,
                    "patching_rect": [ 347.9166533946991, 151.04166090488434, 50.0, 22.0 ]
                }
            },
            {
                "box": {
                    "id": "obj-21",
                    "maxclass": "comment",
                    "numinlets": 1,
                    "numoutlets": 0,
                    "patching_rect": [ 399.99998474121094, 146.8749943971634, 61.0, 20.0 ],
                    "text": "nb station"
                }
            },
            {
                "box": {
                    "id": "obj-10",
                    "maxclass": "newobj",
                    "numinlets": 2,
                    "numoutlets": 2,
                    "outlettype": [ "jit_matrix", "" ],
                    "patching_rect": [ 236.45832431316376, 336.4583204984665, 68.0, 22.0 ],
                    "text": "jit.multiplex"
                }
            },
            {
                "box": {
                    "id": "obj-7",
                    "maxclass": "newobj",
                    "numinlets": 3,
                    "numoutlets": 2,
                    "outlettype": [ "jit_matrix", "" ],
                    "patching_rect": [ 236.45832431316376, 306.2499883174896, 56.0, 22.0 ],
                    "text": "jit.pack 3"
                }
            },
            {
                "box": {
                    "id": "obj-4",
                    "maxclass": "newobj",
                    "numinlets": 1,
                    "numoutlets": 2,
                    "outlettype": [ "jit_matrix", "" ],
                    "patching_rect": [ 236.45832431316376, 117.70832884311676, 136.0, 22.0 ],
                    "text": "jit.matrix 1 float32 20 1"
                }
            },
            {
                "box": {
                    "id": "obj-36",
                    "linecount": 2,
                    "maxclass": "newobj",
                    "numinlets": 9,
                    "numoutlets": 2,
                    "outlettype": [ "", "" ],
                    "patching_rect": [ 236.45832431316376, 428.12498366832733, 254.0, 35.0 ],
                    "text": "jit.gl.mesh stations @draw_mode lines @blend_enable 0 @color 0 0 0 1"
                }
            },
            {
                "box": {
                    "id": "obj-149",
                    "linecount": 2,
                    "maxclass": "newobj",
                    "numinlets": 2,
                    "numoutlets": 2,
                    "outlettype": [ "jit_matrix", "" ],
                    "patching_rect": [ 465.62498223781586, 239.58332419395447, 136.0, 35.0 ],
                    "text": "jit.expr @expr sin(TWOPI*in[0])"
                }
            },
            {
                "box": {
                    "id": "obj-146",
                    "linecount": 2,
                    "maxclass": "newobj",
                    "numinlets": 2,
                    "numoutlets": 2,
                    "outlettype": [ "jit_matrix", "" ],
                    "patching_rect": [ 324.9999876022339, 239.58332419395447, 136.0, 35.0 ],
                    "text": "jit.expr @expr cos(TWOPI*in[0])"
                }
            },
            {
                "box": {
                    "id": "obj-122",
                    "maxclass": "newobj",
                    "numinlets": 3,
                    "numoutlets": 2,
                    "outlettype": [ "jit_matrix", "" ],
                    "patching_rect": [ 324.9999876022339, 306.2499883174896, 160.0, 22.0 ],
                    "text": "jit.pack 3"
                }
            },
            {
                "box": {
                    "attr": "enable",
                    "id": "obj-8",
                    "maxclass": "attrui",
                    "numinlets": 1,
                    "numoutlets": 1,
                    "outlettype": [ "" ],
                    "parameter_enable": 0,
                    "patching_rect": [ 271.8749896287918, 371.87498581409454, 150.0, 22.0 ]
                }
            },
            {
                "box": {
                    "attr": "line_width",
                    "id": "obj-11",
                    "maxclass": "attrui",
                    "numinlets": 1,
                    "numoutlets": 1,
                    "outlettype": [ "" ],
                    "parameter_enable": 0,
                    "patching_rect": [ 424.9999837875366, 371.87498581409454, 150.0, 22.0 ]
                }
            },
            {
                "box": {
                    "id": "obj-3",
                    "maxclass": "toggle",
                    "numinlets": 1,
                    "numoutlets": 1,
                    "outlettype": [ "int" ],
                    "parameter_enable": 0,
                    "patching_rect": [ 59.0, 59.3749977350235, 24.0, 24.0 ]
                }
            },
            {
                "box": {
                    "id": "obj-1",
                    "maxclass": "newobj",
                    "numinlets": 1,
                    "numoutlets": 3,
                    "outlettype": [ "jit_matrix", "bang", "" ],
                    "patching_rect": [ 59.0, 93.5, 100.0, 22.0 ],
                    "text": "jit.world stations"
                }
            }
        ],
        "lines": [
            {
                "patchline": {
                    "destination": [ "obj-36", 0 ],
                    "source": [ "obj-10", 0 ]
                }
            },
            {
                "patchline": {
                    "destination": [ "obj-36", 0 ],
                    "source": [ "obj-11", 0 ]
                }
            },
            {
                "patchline": {
                    "destination": [ "obj-10", 1 ],
                    "source": [ "obj-122", 0 ]
                }
            },
            {
                "patchline": {
                    "destination": [ "obj-122", 0 ],
                    "source": [ "obj-146", 0 ]
                }
            },
            {
                "patchline": {
                    "destination": [ "obj-122", 1 ],
                    "source": [ "obj-149", 0 ]
                }
            },
            {
                "patchline": {
                    "destination": [ "obj-63", 1 ],
                    "source": [ "obj-24", 0 ]
                }
            },
            {
                "patchline": {
                    "destination": [ "obj-1", 0 ],
                    "source": [ "obj-3", 0 ]
                }
            },
            {
                "patchline": {
                    "destination": [ "obj-63", 0 ],
                    "order": 0,
                    "source": [ "obj-4", 0 ]
                }
            },
            {
                "patchline": {
                    "destination": [ "obj-7", 1 ],
                    "order": 1,
                    "source": [ "obj-4", 0 ]
                }
            },
            {
                "patchline": {
                    "destination": [ "obj-7", 0 ],
                    "order": 2,
                    "source": [ "obj-4", 0 ]
                }
            },
            {
                "patchline": {
                    "destination": [ "obj-146", 0 ],
                    "order": 1,
                    "source": [ "obj-63", 0 ]
                }
            },
            {
                "patchline": {
                    "destination": [ "obj-149", 0 ],
                    "order": 0,
                    "source": [ "obj-63", 0 ]
                }
            },
            {
                "patchline": {
                    "destination": [ "obj-73", 0 ],
                    "order": 2,
                    "source": [ "obj-63", 0 ]
                }
            },
            {
                "patchline": {
                    "destination": [ "obj-63", 2 ],
                    "source": [ "obj-65", 0 ]
                }
            },
            {
                "patchline": {
                    "destination": [ "obj-4", 0 ],
                    "source": [ "obj-67", 0 ]
                }
            },
            {
                "patchline": {
                    "destination": [ "obj-67", 0 ],
                    "source": [ "obj-69", 0 ]
                }
            },
            {
                "patchline": {
                    "destination": [ "obj-10", 0 ],
                    "source": [ "obj-7", 0 ]
                }
            },
            {
                "patchline": {
                    "destination": [ "obj-7", 0 ],
                    "source": [ "obj-73", 0 ]
                }
            },
            {
                "patchline": {
                    "destination": [ "obj-65", 0 ],
                    "source": [ "obj-74", 0 ]
                }
            },
            {
                "patchline": {
                    "destination": [ "obj-36", 0 ],
                    "source": [ "obj-8", 0 ]
                }
            }
        ],
        "autosave": 0
    }
}