{
	"patcher" : 	{
		"fileversion" : 1,
		"appversion" : 		{
			"major" : 7,
			"minor" : 3,
			"revision" : 1,
			"architecture" : "x86",
			"modernui" : 1
		}
,
		"rect" : [ 145.0, 88.0, 1174.0, 722.0 ],
		"bgcolor" : [ 0.93, 0.93, 0.92, 1.0 ],
		"bglocked" : 0,
		"openinpresentation" : 0,
		"default_fontsize" : 12.0,
		"default_fontface" : 0,
		"default_fontname" : "Arial",
		"gridonopen" : 1,
		"gridsize" : [ 15.0, 15.0 ],
		"gridsnaponopen" : 1,
		"objectsnaponopen" : 1,
		"statusbarvisible" : 2,
		"toolbarvisible" : 1,
		"lefttoolbarpinned" : 0,
		"toptoolbarpinned" : 0,
		"righttoolbarpinned" : 0,
		"bottomtoolbarpinned" : 0,
		"toolbars_unpinned_last_save" : 0,
		"tallnewobj" : 0,
		"boxanimatetime" : 200,
		"enablehscroll" : 1,
		"enablevscroll" : 1,
		"devicewidth" : 0.0,
		"description" : "",
		"digest" : "",
		"tags" : "",
		"style" : "",
		"subpatcher_template" : "",
		"boxes" : [ 			{
				"box" : 				{
					"fontname" : "Arial",
					"fontsize" : 12.0,
					"hidden" : 1,
					"id" : "obj-20",
					"maxclass" : "newobj",
					"numinlets" : 0,
					"numoutlets" : 0,
					"patcher" : 					{
						"fileversion" : 1,
						"appversion" : 						{
							"major" : 7,
							"minor" : 3,
							"revision" : 1,
							"architecture" : "x86",
							"modernui" : 1
						}
,
						"rect" : [ 25.0, 70.0, 640.0, 480.0 ],
						"bglocked" : 0,
						"openinpresentation" : 0,
						"default_fontsize" : 12.0,
						"default_fontface" : 0,
						"default_fontname" : "Arial",
						"gridonopen" : 1,
						"gridsize" : [ 15.0, 15.0 ],
						"gridsnaponopen" : 1,
						"objectsnaponopen" : 1,
						"statusbarvisible" : 2,
						"toolbarvisible" : 1,
						"lefttoolbarpinned" : 0,
						"toptoolbarpinned" : 0,
						"righttoolbarpinned" : 0,
						"bottomtoolbarpinned" : 0,
						"toolbars_unpinned_last_save" : 0,
						"tallnewobj" : 0,
						"boxanimatetime" : 200,
						"enablehscroll" : 1,
						"enablevscroll" : 1,
						"devicewidth" : 0.0,
						"description" : "",
						"digest" : "",
						"tags" : "",
						"style" : "",
						"subpatcher_template" : "",
						"boxes" : [ 							{
								"box" : 								{
									"fontname" : "Arial",
									"fontsize" : 12.0,
									"id" : "obj-6",
									"maxclass" : "comment",
									"numinlets" : 1,
									"numoutlets" : 0,
									"patching_rect" : [ 37.0, 92.0, 150.0, 20.0 ],
									"style" : "",
									"text" : "more compact overview ?"
								}

							}
, 							{
								"box" : 								{
									"fontname" : "Arial",
									"fontsize" : 12.0,
									"id" : "obj-4",
									"maxclass" : "newobj",
									"numinlets" : 1,
									"numoutlets" : 1,
									"outlettype" : [ "clear" ],
									"patcher" : 									{
										"fileversion" : 1,
										"appversion" : 										{
											"major" : 7,
											"minor" : 3,
											"revision" : 1,
											"architecture" : "x86",
											"modernui" : 1
										}
,
										"rect" : [ 0.0, 0.0, 640.0, 480.0 ],
										"bglocked" : 0,
										"openinpresentation" : 0,
										"default_fontsize" : 12.0,
										"default_fontface" : 0,
										"default_fontname" : "Arial",
										"gridonopen" : 1,
										"gridsize" : [ 15.0, 15.0 ],
										"gridsnaponopen" : 1,
										"objectsnaponopen" : 1,
										"statusbarvisible" : 2,
										"toolbarvisible" : 1,
										"lefttoolbarpinned" : 0,
										"toptoolbarpinned" : 0,
										"righttoolbarpinned" : 0,
										"bottomtoolbarpinned" : 0,
										"toolbars_unpinned_last_save" : 0,
										"tallnewobj" : 0,
										"boxanimatetime" : 200,
										"enablehscroll" : 1,
										"enablevscroll" : 1,
										"devicewidth" : 0.0,
										"description" : "",
										"digest" : "",
										"tags" : "",
										"style" : "",
										"subpatcher_template" : "",
										"boxes" : [ 											{
												"box" : 												{
													"fontname" : "Arial",
													"fontsize" : 12.0,
													"id" : "obj-8",
													"maxclass" : "newobj",
													"numinlets" : 1,
													"numoutlets" : 2,
													"outlettype" : [ "dump", "clear" ],
													"patching_rect" : [ 50.0, 100.0, 77.0, 20.0 ],
													"style" : "",
													"text" : "t dump clear"
												}

											}
, 											{
												"box" : 												{
													"fontname" : "Arial",
													"fontsize" : 12.0,
													"id" : "obj-7",
													"maxclass" : "newobj",
													"numinlets" : 2,
													"numoutlets" : 2,
													"outlettype" : [ "", "" ],
													"patching_rect" : [ 50.0, 148.891479, 79.0, 20.0 ],
													"style" : "",
													"text" : "route symbol"
												}

											}
, 											{
												"box" : 												{
													"fontname" : "Arial",
													"fontsize" : 12.0,
													"id" : "obj-6",
													"maxclass" : "newobj",
													"numinlets" : 1,
													"numoutlets" : 1,
													"outlettype" : [ "" ],
													"patching_rect" : [ 50.0, 197.782959, 98.0, 20.0 ],
													"style" : "",
													"text" : "prepend append"
												}

											}
, 											{
												"box" : 												{
													"fontname" : "Arial",
													"fontsize" : 12.0,
													"id" : "obj-5",
													"maxclass" : "newobj",
													"numinlets" : 2,
													"numoutlets" : 2,
													"outlettype" : [ "", "" ],
													"patching_rect" : [ 50.0, 173.337219, 57.0, 20.0 ],
													"style" : "",
													"text" : "zl slice 1"
												}

											}
, 											{
												"box" : 												{
													"fontname" : "Arial",
													"fontsize" : 12.0,
													"id" : "obj-4",
													"maxclass" : "newobj",
													"numinlets" : 1,
													"numoutlets" : 4,
													"outlettype" : [ "", "", "", "" ],
													"patching_rect" : [ 50.0, 124.44574, 121.0, 20.0 ],
													"saved_object_attributes" : 													{
														"embed" : 0
													}
,
													"style" : "",
													"text" : "coll lamlib-helper.coll"
												}

											}
, 											{
												"box" : 												{
													"comment" : "",
													"id" : "obj-1",
													"maxclass" : "inlet",
													"numinlets" : 0,
													"numoutlets" : 1,
													"outlettype" : [ "bang" ],
													"patching_rect" : [ 50.0, 40.0, 25.0, 25.0 ],
													"style" : ""
												}

											}
, 											{
												"box" : 												{
													"comment" : "",
													"id" : "obj-2",
													"maxclass" : "outlet",
													"numinlets" : 1,
													"numoutlets" : 0,
													"patching_rect" : [ 45.0, 277.782959, 25.0, 25.0 ],
													"style" : ""
												}

											}
 ],
										"lines" : [ 											{
												"patchline" : 												{
													"destination" : [ "obj-8", 0 ],
													"disabled" : 0,
													"hidden" : 0,
													"source" : [ "obj-1", 0 ]
												}

											}
, 											{
												"patchline" : 												{
													"destination" : [ "obj-7", 0 ],
													"disabled" : 0,
													"hidden" : 0,
													"source" : [ "obj-4", 1 ]
												}

											}
, 											{
												"patchline" : 												{
													"destination" : [ "obj-6", 0 ],
													"disabled" : 0,
													"hidden" : 0,
													"source" : [ "obj-5", 0 ]
												}

											}
, 											{
												"patchline" : 												{
													"destination" : [ "obj-2", 0 ],
													"disabled" : 0,
													"hidden" : 0,
													"source" : [ "obj-6", 0 ]
												}

											}
, 											{
												"patchline" : 												{
													"destination" : [ "obj-5", 0 ],
													"disabled" : 0,
													"hidden" : 0,
													"source" : [ "obj-7", 1 ]
												}

											}
, 											{
												"patchline" : 												{
													"destination" : [ "obj-5", 0 ],
													"disabled" : 0,
													"hidden" : 0,
													"source" : [ "obj-7", 0 ]
												}

											}
, 											{
												"patchline" : 												{
													"destination" : [ "obj-2", 0 ],
													"disabled" : 0,
													"hidden" : 0,
													"source" : [ "obj-8", 1 ]
												}

											}
, 											{
												"patchline" : 												{
													"destination" : [ "obj-4", 0 ],
													"disabled" : 0,
													"hidden" : 0,
													"source" : [ "obj-8", 0 ]
												}

											}
 ]
									}
,
									"patching_rect" : [ 43.0, 151.44574, 66.0, 20.0 ],
									"saved_object_attributes" : 									{
										"description" : "",
										"digest" : "",
										"globalpatchername" : "",
										"style" : "",
										"tags" : ""
									}
,
									"style" : "",
									"text" : "p fill-menu"
								}

							}
, 							{
								"box" : 								{
									"fontname" : "Arial",
									"fontsize" : 12.0,
									"id" : "obj-30",
									"maxclass" : "newobj",
									"numinlets" : 1,
									"numoutlets" : 1,
									"outlettype" : [ "" ],
									"patcher" : 									{
										"fileversion" : 1,
										"appversion" : 										{
											"major" : 7,
											"minor" : 3,
											"revision" : 1,
											"architecture" : "x86",
											"modernui" : 1
										}
,
										"rect" : [ 25.0, 70.0, 640.0, 480.0 ],
										"bglocked" : 0,
										"openinpresentation" : 0,
										"default_fontsize" : 12.0,
										"default_fontface" : 0,
										"default_fontname" : "Arial",
										"gridonopen" : 1,
										"gridsize" : [ 15.0, 15.0 ],
										"gridsnaponopen" : 1,
										"objectsnaponopen" : 1,
										"statusbarvisible" : 2,
										"toolbarvisible" : 1,
										"lefttoolbarpinned" : 0,
										"toptoolbarpinned" : 0,
										"righttoolbarpinned" : 0,
										"bottomtoolbarpinned" : 0,
										"toolbars_unpinned_last_save" : 0,
										"tallnewobj" : 0,
										"boxanimatetime" : 200,
										"enablehscroll" : 1,
										"enablevscroll" : 1,
										"devicewidth" : 0.0,
										"description" : "",
										"digest" : "",
										"tags" : "",
										"style" : "",
										"subpatcher_template" : "",
										"boxes" : [ 											{
												"box" : 												{
													"fontname" : "Arial",
													"fontsize" : 12.0,
													"id" : "obj-34",
													"maxclass" : "newobj",
													"numinlets" : 2,
													"numoutlets" : 2,
													"outlettype" : [ "", "" ],
													"patching_rect" : [ 50.0, 73.0, 49.0, 20.0 ],
													"style" : "",
													"text" : "zl nth 3"
												}

											}
, 											{
												"box" : 												{
													"fontname" : "Arial",
													"fontsize" : 12.0,
													"id" : "obj-27",
													"maxclass" : "newobj",
													"numinlets" : 2,
													"numoutlets" : 2,
													"outlettype" : [ "", "" ],
													"patching_rect" : [ 50.0, 155.0, 123.0, 20.0 ],
													"style" : "",
													"text" : "substitute symbol set"
												}

											}
, 											{
												"box" : 												{
													"fontname" : "Arial",
													"fontsize" : 12.0,
													"id" : "obj-21",
													"maxclass" : "newobj",
													"numinlets" : 1,
													"numoutlets" : 4,
													"outlettype" : [ "", "", "", "" ],
													"patching_rect" : [ 50.0, 126.0, 121.0, 20.0 ],
													"saved_object_attributes" : 													{
														"embed" : 0
													}
,
													"style" : "",
													"text" : "coll lamlib-helper.coll"
												}

											}
, 											{
												"box" : 												{
													"fontname" : "Arial",
													"fontsize" : 12.0,
													"id" : "obj-18",
													"maxclass" : "newobj",
													"numinlets" : 1,
													"numoutlets" : 1,
													"outlettype" : [ "" ],
													"patching_rect" : [ 50.0, 100.0, 96.0, 20.0 ],
													"style" : "",
													"text" : "prepend symbol"
												}

											}
, 											{
												"box" : 												{
													"comment" : "",
													"id" : "obj-28",
													"maxclass" : "inlet",
													"numinlets" : 0,
													"numoutlets" : 1,
													"outlettype" : [ "list" ],
													"patching_rect" : [ 50.0, 40.0, 25.0, 25.0 ],
													"style" : ""
												}

											}
, 											{
												"box" : 												{
													"comment" : "",
													"id" : "obj-29",
													"maxclass" : "outlet",
													"numinlets" : 1,
													"numoutlets" : 0,
													"patching_rect" : [ 50.0, 235.0, 25.0, 25.0 ],
													"style" : ""
												}

											}
 ],
										"lines" : [ 											{
												"patchline" : 												{
													"destination" : [ "obj-21", 0 ],
													"disabled" : 0,
													"hidden" : 0,
													"source" : [ "obj-18", 0 ]
												}

											}
, 											{
												"patchline" : 												{
													"destination" : [ "obj-27", 0 ],
													"disabled" : 0,
													"hidden" : 0,
													"source" : [ "obj-21", 0 ]
												}

											}
, 											{
												"patchline" : 												{
													"destination" : [ "obj-29", 0 ],
													"disabled" : 0,
													"hidden" : 0,
													"source" : [ "obj-27", 0 ]
												}

											}
, 											{
												"patchline" : 												{
													"destination" : [ "obj-34", 0 ],
													"disabled" : 0,
													"hidden" : 0,
													"source" : [ "obj-28", 0 ]
												}

											}
, 											{
												"patchline" : 												{
													"destination" : [ "obj-18", 0 ],
													"disabled" : 0,
													"hidden" : 0,
													"source" : [ "obj-34", 0 ]
												}

											}
 ]
									}
,
									"patching_rect" : [ 37.0, 317.0, 123.0, 20.0 ],
									"saved_object_attributes" : 									{
										"description" : "",
										"digest" : "",
										"globalpatchername" : "",
										"style" : "",
										"tags" : ""
									}
,
									"style" : "",
									"text" : "p comment"
								}

							}
, 							{
								"box" : 								{
									"fontname" : "Arial",
									"fontsize" : 12.0,
									"id" : "obj-25",
									"maxclass" : "comment",
									"numinlets" : 1,
									"numoutlets" : 0,
									"patching_rect" : [ 37.0, 347.0, 357.0, 20.0 ],
									"style" : "",
									"text" : "Patch... without patchcords."
								}

							}
, 							{
								"box" : 								{
									"fontname" : "Arial",
									"fontsize" : 12.0,
									"id" : "obj-15",
									"maxclass" : "newobj",
									"numinlets" : 0,
									"numoutlets" : 1,
									"outlettype" : [ "" ],
									"patcher" : 									{
										"fileversion" : 1,
										"appversion" : 										{
											"major" : 7,
											"minor" : 3,
											"revision" : 1,
											"architecture" : "x86",
											"modernui" : 1
										}
,
										"rect" : [ 25.0, 70.0, 640.0, 480.0 ],
										"bglocked" : 0,
										"openinpresentation" : 0,
										"default_fontsize" : 12.0,
										"default_fontface" : 0,
										"default_fontname" : "Arial",
										"gridonopen" : 1,
										"gridsize" : [ 15.0, 15.0 ],
										"gridsnaponopen" : 1,
										"objectsnaponopen" : 1,
										"statusbarvisible" : 2,
										"toolbarvisible" : 1,
										"lefttoolbarpinned" : 0,
										"toptoolbarpinned" : 0,
										"righttoolbarpinned" : 0,
										"bottomtoolbarpinned" : 0,
										"toolbars_unpinned_last_save" : 0,
										"tallnewobj" : 0,
										"boxanimatetime" : 200,
										"enablehscroll" : 1,
										"enablevscroll" : 1,
										"devicewidth" : 0.0,
										"description" : "",
										"digest" : "",
										"tags" : "",
										"style" : "",
										"subpatcher_template" : "",
										"boxes" : [ 											{
												"box" : 												{
													"fontname" : "Arial",
													"fontsize" : 12.0,
													"id" : "obj-1",
													"maxclass" : "newobj",
													"numinlets" : 1,
													"numoutlets" : 1,
													"outlettype" : [ "bang" ],
													"patching_rect" : [ 157.0, 294.0, 60.0, 20.0 ],
													"style" : "",
													"text" : "loadbang"
												}

											}
, 											{
												"box" : 												{
													"fontname" : "Arial",
													"fontsize" : 12.0,
													"id" : "obj-13",
													"maxclass" : "message",
													"numinlets" : 2,
													"numoutlets" : 1,
													"outlettype" : [ "" ],
													"patching_rect" : [ 157.0, 324.0, 129.0, 18.0 ],
													"style" : "",
													"text" : "refer lamlib-helper.coll"
												}

											}
, 											{
												"box" : 												{
													"fontname" : "Arial",
													"fontsize" : 13.0,
													"id" : "obj-39",
													"maxclass" : "comment",
													"numinlets" : 1,
													"numoutlets" : 0,
													"patching_rect" : [ 92.0, 100.0, 150.0, 21.0 ],
													"style" : "",
													"text" : "set dimensional sizes",
													"textcolor" : [ 0.5, 0.5, 0.5, 1.0 ]
												}

											}
, 											{
												"box" : 												{
													"fontname" : "Arial",
													"fontsize" : 13.0,
													"id" : "obj-24",
													"maxclass" : "comment",
													"numinlets" : 1,
													"numoutlets" : 0,
													"patching_rect" : [ 176.0, 127.0, 50.0, 21.0 ],
													"style" : "",
													"text" : "row",
													"textcolor" : [ 0.5, 0.5, 0.5, 1.0 ]
												}

											}
, 											{
												"box" : 												{
													"fontname" : "Arial",
													"fontsize" : 13.0,
													"id" : "obj-25",
													"maxclass" : "number",
													"minimum" : 0,
													"numinlets" : 1,
													"numoutlets" : 2,
													"outlettype" : [ "", "bang" ],
													"parameter_enable" : 0,
													"patching_rect" : [ 226.0, 153.0, 46.0, 21.0 ],
													"style" : "",
													"triscale" : 0.9
												}

											}
, 											{
												"box" : 												{
													"fontname" : "Arial",
													"fontsize" : 13.0,
													"id" : "obj-27",
													"maxclass" : "number",
													"maximum" : 100,
													"minimum" : 0,
													"numinlets" : 1,
													"numoutlets" : 2,
													"outlettype" : [ "", "bang" ],
													"parameter_enable" : 0,
													"patching_rect" : [ 226.0, 127.0, 46.0, 21.0 ],
													"style" : "",
													"triscale" : 0.9
												}

											}
, 											{
												"box" : 												{
													"fontname" : "Arial",
													"fontsize" : 13.0,
													"id" : "obj-28",
													"maxclass" : "newobj",
													"numinlets" : 2,
													"numoutlets" : 1,
													"outlettype" : [ "" ],
													"patching_rect" : [ 219.0, 188.0, 53.0, 21.0 ],
													"style" : "",
													"text" : "pak 0 0"
												}

											}
, 											{
												"box" : 												{
													"fontname" : "Arial",
													"fontsize" : 13.0,
													"id" : "obj-29",
													"maxclass" : "message",
													"numinlets" : 2,
													"numoutlets" : 1,
													"outlettype" : [ "" ],
													"patching_rect" : [ 219.0, 217.0, 107.0, 19.0 ],
													"style" : "",
													"text" : "row $1 height $2"
												}

											}
, 											{
												"box" : 												{
													"fontname" : "Arial",
													"fontsize" : 13.0,
													"id" : "obj-30",
													"maxclass" : "comment",
													"numinlets" : 1,
													"numoutlets" : 0,
													"patching_rect" : [ 176.0, 153.0, 47.0, 21.0 ],
													"style" : "",
													"text" : "height",
													"textcolor" : [ 0.5, 0.5, 0.5, 1.0 ]
												}

											}
, 											{
												"box" : 												{
													"fontname" : "Arial",
													"fontsize" : 13.0,
													"id" : "obj-26",
													"maxclass" : "comment",
													"numinlets" : 1,
													"numoutlets" : 0,
													"patching_rect" : [ 50.0, 127.0, 52.0, 21.0 ],
													"style" : "",
													"text" : "column",
													"textcolor" : [ 0.5, 0.5, 0.5, 1.0 ]
												}

											}
, 											{
												"box" : 												{
													"fontname" : "Arial",
													"fontsize" : 13.0,
													"id" : "obj-32",
													"maxclass" : "number",
													"minimum" : 0,
													"numinlets" : 1,
													"numoutlets" : 2,
													"outlettype" : [ "", "bang" ],
													"parameter_enable" : 0,
													"patching_rect" : [ 103.0, 153.0, 42.0, 21.0 ],
													"style" : "",
													"triscale" : 0.9
												}

											}
, 											{
												"box" : 												{
													"fontname" : "Arial",
													"fontsize" : 13.0,
													"id" : "obj-33",
													"maxclass" : "number",
													"maximum" : 100,
													"minimum" : 0,
													"numinlets" : 1,
													"numoutlets" : 2,
													"outlettype" : [ "", "bang" ],
													"parameter_enable" : 0,
													"patching_rect" : [ 103.0, 127.0, 42.0, 21.0 ],
													"style" : "",
													"triscale" : 0.9
												}

											}
, 											{
												"box" : 												{
													"fontname" : "Arial",
													"fontsize" : 13.0,
													"id" : "obj-34",
													"maxclass" : "newobj",
													"numinlets" : 2,
													"numoutlets" : 1,
													"outlettype" : [ "" ],
													"patching_rect" : [ 92.0, 188.0, 53.0, 21.0 ],
													"style" : "",
													"text" : "pak 0 0"
												}

											}
, 											{
												"box" : 												{
													"fontname" : "Arial",
													"fontsize" : 13.0,
													"id" : "obj-35",
													"maxclass" : "message",
													"numinlets" : 2,
													"numoutlets" : 1,
													"outlettype" : [ "" ],
													"patching_rect" : [ 92.0, 217.0, 97.0, 19.0 ],
													"style" : "",
													"text" : "col $1 width $2"
												}

											}
, 											{
												"box" : 												{
													"fontname" : "Arial",
													"fontsize" : 13.0,
													"id" : "obj-36",
													"maxclass" : "newobj",
													"numinlets" : 1,
													"numoutlets" : 0,
													"patching_rect" : [ 92.0, 254.0, 107.0, 21.0 ],
													"style" : "",
													"text" : "s dim_command"
												}

											}
, 											{
												"box" : 												{
													"fontname" : "Arial",
													"fontsize" : 13.0,
													"id" : "obj-37",
													"maxclass" : "comment",
													"numinlets" : 1,
													"numoutlets" : 0,
													"patching_rect" : [ 50.0, 153.0, 41.0, 21.0 ],
													"style" : "",
													"text" : "width",
													"textcolor" : [ 0.5, 0.5, 0.5, 1.0 ]
												}

											}
, 											{
												"box" : 												{
													"comment" : "",
													"id" : "obj-14",
													"maxclass" : "outlet",
													"numinlets" : 1,
													"numoutlets" : 0,
													"patching_rect" : [ 92.0, 335.0, 25.0, 25.0 ],
													"style" : ""
												}

											}
 ],
										"lines" : [ 											{
												"patchline" : 												{
													"destination" : [ "obj-13", 0 ],
													"disabled" : 0,
													"hidden" : 0,
													"source" : [ "obj-1", 0 ]
												}

											}
, 											{
												"patchline" : 												{
													"destination" : [ "obj-14", 0 ],
													"disabled" : 0,
													"hidden" : 0,
													"source" : [ "obj-13", 0 ]
												}

											}
, 											{
												"patchline" : 												{
													"destination" : [ "obj-28", 1 ],
													"disabled" : 0,
													"hidden" : 0,
													"source" : [ "obj-25", 0 ]
												}

											}
, 											{
												"patchline" : 												{
													"destination" : [ "obj-28", 0 ],
													"disabled" : 0,
													"hidden" : 0,
													"source" : [ "obj-27", 0 ]
												}

											}
, 											{
												"patchline" : 												{
													"destination" : [ "obj-29", 0 ],
													"disabled" : 0,
													"hidden" : 0,
													"source" : [ "obj-28", 0 ]
												}

											}
, 											{
												"patchline" : 												{
													"destination" : [ "obj-36", 0 ],
													"disabled" : 0,
													"hidden" : 0,
													"midpoints" : [ 228.5, 245.5, 101.5, 245.5 ],
													"source" : [ "obj-29", 0 ]
												}

											}
, 											{
												"patchline" : 												{
													"destination" : [ "obj-34", 1 ],
													"disabled" : 0,
													"hidden" : 0,
													"source" : [ "obj-32", 0 ]
												}

											}
, 											{
												"patchline" : 												{
													"destination" : [ "obj-34", 0 ],
													"disabled" : 0,
													"hidden" : 0,
													"source" : [ "obj-33", 0 ]
												}

											}
, 											{
												"patchline" : 												{
													"destination" : [ "obj-35", 0 ],
													"disabled" : 0,
													"hidden" : 0,
													"source" : [ "obj-34", 0 ]
												}

											}
, 											{
												"patchline" : 												{
													"destination" : [ "obj-14", 0 ],
													"disabled" : 0,
													"hidden" : 0,
													"source" : [ "obj-35", 0 ]
												}

											}
, 											{
												"patchline" : 												{
													"destination" : [ "obj-36", 0 ],
													"disabled" : 0,
													"hidden" : 0,
													"source" : [ "obj-35", 0 ]
												}

											}
 ]
									}
,
									"patching_rect" : [ 37.0, 214.0, 59.0, 20.0 ],
									"saved_object_attributes" : 									{
										"description" : "",
										"digest" : "",
										"globalpatchername" : "",
										"style" : "",
										"tags" : ""
									}
,
									"style" : "",
									"text" : "p options"
								}

							}
, 							{
								"box" : 								{
									"automouse" : 0,
									"coldef" : [ [ 0, 164, 1, 0.0, 0.0, 0.0, 1.0, 1, 0.0, 0.0, 0.0, 1.0, -1, -1, -1 ], [ 1, 386, 1, 0.0, 0.0, 0.0, 1.0, 1, 0.0, 0.0, 0.0, 1.0, -1, -1, -1 ] ],
									"cols" : 2,
									"fontface" : 0,
									"fontname" : "Arial",
									"fontsize" : 12.0,
									"hscroll" : 0,
									"id" : "obj-11",
									"maxclass" : "jit.cellblock",
									"numinlets" : 2,
									"numoutlets" : 4,
									"outlettype" : [ "list", "", "", "" ],
									"outmode" : 1,
									"patching_rect" : [ 37.0, 245.0, 510.0, 66.0 ],
									"readonly" : 1,
									"rows" : 250,
									"selmode" : 3
								}

							}
, 							{
								"box" : 								{
									"id" : "obj-10",
									"maxclass" : "button",
									"numinlets" : 1,
									"numoutlets" : 1,
									"outlettype" : [ "bang" ],
									"patching_rect" : [ 43.0, 127.0, 20.0, 20.0 ],
									"style" : ""
								}

							}
, 							{
								"box" : 								{
									"allowdrag" : 0,
									"id" : "obj-3",
									"items" : [ "LAM.%wrap", ",", "LAM.%wrap~", ",", "LAM.2d.magnifier", ",", "LAM.2d_index", ",", "LAM.2dgrid", ",", "LAM.CheapAutotune~", ",", "LAM.EqualLoudnessCurve", ",", "LAM.LAOS", ",", "LAM.OSC-monoroute", ",", "LAM.OSC-multiroute", ",", "LAM.OSC.levelup", ",", "LAM.PLL~", ",", "LAM.PLL~ ", ",", "LAM.PLL~ @obj-desc", ",", "LAM.Roulette", ",", "LAM.TUIO.decode", ",", "LAM.ac-supersaw~", ",", "LAM.addeltaclip", ",", "LAM.anticlick~", ",", "LAM.anyrotate", ",", "LAM.baglist", ",", "LAM.bounded_pseudosigmoid", ",", "LAM.bounded_sigmoid", ",", "LAM.bounds", ",", "LAM.bounds.index", ",", "LAM.carrywrap", ",", "LAM.cartohexagrid", ",", "LAM.cheapvocoder~", ",", "LAM.clipclock", ",", "LAM.closest", ",", "LAM.continoctave", ",", "LAM.crossProduct", ",", "LAM.crosscorrelation.fft~", ",", "LAM.crosscorrelation.pfft~", ",", "LAM.d2r", ",", "LAM.dec2bin", ",", "LAM.dec2hex", ",", "LAM.dist.atan~", ",", "LAM.dist.tanh~", ",", "LAM.doppler~", ",", "LAM.dotproduct", ",", "LAM.dpr~", ",", "LAM.ducker~", ",", "LAM.energizer", ",", "LAM.energizer~", ",", "LAM.fadeoctave", ",", "LAM.fadeoctave~", ",", "LAM.filterSimpler~", ",", "LAM.freqtosamps", ",", "LAM.gen.PLL~", ",", "LAM.gen.PLL~ ", ",", "LAM.gen.karpizz~", ",", "LAM.gen.onepolems~", ",", "LAM.glissandi~", ",", "LAM.grid", ",", "LAM.gridindex", ",", "LAM.handclap~", ",", "LAM.harmoFM~", ",", "LAM.hysteresis", ",", "LAM.hysteresis~", ",", "LAM.indexToCoord", ",", "LAM.intbetween", ",", "LAM.interpolist", ",", "LAM.jit.3dscope~", ",", "LAM.jit.GOL.scoreMaker", ",", "LAM.jit.HarrDecomposition", ",", "LAM.jit.RLEreader", ",", "LAM.jit.bfade", ",", "LAM.jit.bounded_sigmoid", ",", "LAM.jit.cartopol", ",", "LAM.jit.cartospher", ",", "LAM.jit.dim.dotproduct", ",", "LAM.jit.dimsum", ",", "LAM.jit.gl.DSW~", ",", "LAM.jit.gl.circlemesh", ",", "LAM.jit.gl.circularwave~", ",", "LAM.jit.gl.dyncanvas", ",", "LAM.jit.gl.scalegrid", ",", "LAM.jit.gl.screentoworld", ",", "LAM.jit.gl.slitscan", ",", "LAM.jit.gl.spectroscope", ",", "LAM.jit.gl.squaremesh", ",", "LAM.jit.gl.textureset", ",", "LAM.jit.gl.waveform~", ",", "LAM.jit.lfade", ",", "LAM.jit.mirror.circle", ",", "LAM.jit.mirror.plane", ",", "LAM.jit.mirror.quadratic", ",", "LAM.jit.norm", ",", "LAM.jit.oplist", ",", "LAM.jit.pa2si", ",", "LAM.jit.plane.dotproduct", ",", "LAM.jit.polar.xfade", ",", "LAM.jit.poltocar", ",", "LAM.jit.pv2si", ",", "LAM.jit.roundedpolygon", ",", "LAM.jit.satellites", ",", "LAM.jit.sigmofade", ",", "LAM.jit.slitscan", ",", "LAM.jit.sphericalharmonics", ",", "LAM.jit.sphertocar", ",", "LAM.jit.submatrix.fill", ",", "LAM.jit.submatrix.select", ",", "LAM.jit.sum", ",", "LAM.jit.verlet", ",", "LAM.karpizz~", ",", "LAM.leslie~", ",", "LAM.lib", ",", "LAM.lib.super_module", ",", "LAM.list.bfade", ",", "LAM.list.find", ",", "LAM.list.xfade", ",", "LAM.livelooping~", ",", "LAM.lowboost", ",", "LAM.makenoteID", ",", "LAM.mpoly.insidepoly", ",", "LAM.mpoly.notonoff", ",", "LAM.mpoly.param", ",", "LAM.notepress", ",", "LAM.ntapin~", ",", "LAM.ntapout~", ",", "LAM.pa2si", ",", "LAM.padsr~", ",", "LAM.paf~", ",", "LAM.pivot2d", ",", "LAM.polymited", ",", "LAM.polytexture", ",", "LAM.polytop.muter", ",", "LAM.polytop.router", ",", "LAM.poscale2rect", ",", "LAM.pparam.in", ",", "LAM.preceive", ",", "LAM.pressureSimpler~", ",", "LAM.proba", ",", "LAM.psend", ",", "LAM.pt.sampler", ",", "LAM.pulse~", ",", "LAM.pv2si", ",", "LAM.quantizattack", ",", "LAM.quantize.cat", ",", "LAM.r2d", ",", "LAM.randistlist", ",", "LAM.ratiotrans", ",", "LAM.ravg", ",", "LAM.rect2poscale", ",", "LAM.rpoly", ",", "LAM.rpoly.insidepoly", ",", "LAM.rpoly.route", ",", "LAM.s-anticlick~", ",", "LAM.s2pr~", ",", "LAM.sawcloud~", ",", "LAM.scalarProduct", ",", "LAM.scroller", ",", "LAM.shiftedscaling", ",", "LAM.simpler~", ",", "LAM.slidems~", ",", "LAM.slopeclip~", ",", "LAM.spat4~", ",", "LAM.speedgate", ",", "LAM.stretcher~", ",", "LAM.super_module", ",", "LAM.toLowerCase", ",", "LAM.toUpperCase", ",", "LAM.transratio", ",", "LAM.urndistlist", ",", "LAM.voronoi.js", ",", "LAM.voronoijs", ",", "LAM.vproduct", ",", "LAM.wobblebass~", ",", "LAM.wobblefilter~", ",", "LAM.wobblepad~", ",", "LAM.wooblepad", ",", "LAM.wooblepad~", ",", "LAM.xy2lr", ",", "Pitch processing example", ",", "gen~ utilities", ",", "obj-name" ],
									"maxclass" : "umenu",
									"numinlets" : 1,
									"numoutlets" : 3,
									"outlettype" : [ "int", "", "" ],
									"parameter_enable" : 0,
									"patching_rect" : [ 43.0, 178.674438, 100.0, 20.0 ],
									"style" : ""
								}

							}
 ],
						"lines" : [ 							{
								"patchline" : 								{
									"destination" : [ "obj-4", 0 ],
									"disabled" : 0,
									"hidden" : 0,
									"source" : [ "obj-10", 0 ]
								}

							}
, 							{
								"patchline" : 								{
									"destination" : [ "obj-30", 0 ],
									"disabled" : 0,
									"hidden" : 0,
									"source" : [ "obj-11", 0 ]
								}

							}
, 							{
								"patchline" : 								{
									"destination" : [ "obj-11", 0 ],
									"disabled" : 0,
									"hidden" : 0,
									"source" : [ "obj-15", 0 ]
								}

							}
, 							{
								"patchline" : 								{
									"destination" : [ "obj-25", 0 ],
									"disabled" : 0,
									"hidden" : 0,
									"source" : [ "obj-30", 0 ]
								}

							}
, 							{
								"patchline" : 								{
									"destination" : [ "obj-3", 0 ],
									"disabled" : 0,
									"hidden" : 0,
									"source" : [ "obj-4", 0 ]
								}

							}
 ]
					}
,
					"patching_rect" : [ 876.9375, 11.25, 44.0, 22.0 ],
					"saved_object_attributes" : 					{
						"description" : "",
						"digest" : "",
						"globalpatchername" : "",
						"style" : "",
						"tags" : ""
					}
,
					"style" : "",
					"text" : "p todo"
				}

			}
, 			{
				"box" : 				{
					"fontname" : "Arial",
					"fontsize" : 12.0,
					"hidden" : 1,
					"id" : "obj-29",
					"maxclass" : "newobj",
					"numinlets" : 3,
					"numoutlets" : 1,
					"outlettype" : [ "int" ],
					"patching_rect" : [ 433.0, 277.5, 124.0, 22.0 ],
					"style" : "",
					"text" : "lamlib.sethelper"
				}

			}
, 			{
				"box" : 				{
					"fontname" : "Arial",
					"fontsize" : 12.0,
					"hidden" : 1,
					"id" : "obj-27",
					"maxclass" : "newobj",
					"numinlets" : 3,
					"numoutlets" : 1,
					"outlettype" : [ "int" ],
					"patching_rect" : [ 433.0, 333.0, 124.0, 22.0 ],
					"style" : "",
					"text" : "lamlib.sethelper"
				}

			}
, 			{
				"box" : 				{
					"fontname" : "Verdana",
					"fontsize" : 10.0,
					"hidden" : 1,
					"id" : "obj-25",
					"maxclass" : "newobj",
					"numinlets" : 0,
					"numoutlets" : 1,
					"outlettype" : [ "" ],
					"patching_rect" : [ 968.9375, 4.681335, 146.0, 21.0 ],
					"style" : "",
					"text" : "r _lamlib_to_help_pcontrol"
				}

			}
, 			{
				"box" : 				{
					"fontname" : "Arial",
					"fontsize" : 12.0,
					"hidden" : 1,
					"id" : "obj-24",
					"maxclass" : "newobj",
					"numinlets" : 0,
					"numoutlets" : 1,
					"outlettype" : [ "" ],
					"patching_rect" : [ 22.9375, 630.34021, 170.0, 22.0 ],
					"style" : "",
					"text" : "r _lamlib_to_helper_comment"
				}

			}
, 			{
				"box" : 				{
					"fontname" : "Arial",
					"fontsize" : 12.0,
					"hidden" : 1,
					"id" : "obj-23",
					"maxclass" : "newobj",
					"numinlets" : 3,
					"numoutlets" : 1,
					"outlettype" : [ "int" ],
					"patching_rect" : [ 600.0, 352.0, 180.0, 22.0 ],
					"style" : "",
					"text" : "lamlib.sethelper"
				}

			}
, 			{
				"box" : 				{
					"fontname" : "Arial",
					"fontsize" : 12.0,
					"hidden" : 1,
					"id" : "obj-18",
					"maxclass" : "newobj",
					"numinlets" : 3,
					"numoutlets" : 1,
					"outlettype" : [ "int" ],
					"patching_rect" : [ 795.0, 365.085052, 180.0, 22.0 ],
					"style" : "",
					"text" : "lamlib.sethelper"
				}

			}
, 			{
				"box" : 				{
					"fontname" : "Arial",
					"fontsize" : 12.0,
					"hidden" : 1,
					"id" : "obj-17",
					"maxclass" : "newobj",
					"numinlets" : 3,
					"numoutlets" : 1,
					"outlettype" : [ "int" ],
					"patching_rect" : [ 795.0, 645.34021, 180.0, 22.0 ],
					"style" : "",
					"text" : "lamlib.sethelper"
				}

			}
, 			{
				"box" : 				{
					"fontname" : "Arial",
					"fontsize" : 12.0,
					"hidden" : 1,
					"id" : "obj-15",
					"maxclass" : "newobj",
					"numinlets" : 3,
					"numoutlets" : 1,
					"outlettype" : [ "int" ],
					"patching_rect" : [ 990.0, 591.170105, 180.0, 22.0 ],
					"style" : "",
					"text" : "lamlib.sethelper"
				}

			}
, 			{
				"box" : 				{
					"fontname" : "Arial",
					"fontsize" : 12.0,
					"hidden" : 1,
					"id" : "obj-14",
					"maxclass" : "newobj",
					"numinlets" : 3,
					"numoutlets" : 1,
					"outlettype" : [ "int" ],
					"patching_rect" : [ 600.0, 575.170105, 180.0, 22.0 ],
					"style" : "",
					"text" : "lamlib.sethelper"
				}

			}
, 			{
				"box" : 				{
					"fontname" : "Arial",
					"fontsize" : 12.0,
					"hidden" : 1,
					"id" : "obj-12",
					"maxclass" : "newobj",
					"numinlets" : 3,
					"numoutlets" : 1,
					"outlettype" : [ "int" ],
					"patching_rect" : [ 405.0, 448.0, 180.0, 22.0 ],
					"style" : "",
					"text" : "lamlib.sethelper"
				}

			}
, 			{
				"box" : 				{
					"fontname" : "Arial",
					"fontsize" : 12.0,
					"hidden" : 1,
					"id" : "obj-8",
					"maxclass" : "newobj",
					"numinlets" : 3,
					"numoutlets" : 1,
					"outlettype" : [ "int" ],
					"patching_rect" : [ 609.0, 640.34021, 180.0, 22.0 ],
					"style" : "",
					"text" : "lamlib.sethelper"
				}

			}
, 			{
				"box" : 				{
					"fontname" : "Arial",
					"fontsize" : 12.0,
					"hidden" : 1,
					"id" : "obj-4",
					"maxclass" : "newobj",
					"numinlets" : 3,
					"numoutlets" : 1,
					"outlettype" : [ "int" ],
					"patching_rect" : [ 210.0, 477.483215, 179.0, 22.0 ],
					"style" : "",
					"text" : "lamlib.sethelper"
				}

			}
, 			{
				"box" : 				{
					"fontface" : 2,
					"fontname" : "Arial",
					"fontsize" : 12.0,
					"id" : "obj-59",
					"maxclass" : "comment",
					"numinlets" : 1,
					"numoutlets" : 0,
					"patching_rect" : [ 22.9375, 704.483215, 1147.0, 20.0 ],
					"style" : "",
					"text" : "Polar cross-fading for jit.matrices"
				}

			}
, 			{
				"box" : 				{
					"fontname" : "Arial",
					"fontsize" : 12.0,
					"hidden" : 1,
					"id" : "obj-48",
					"maxclass" : "newobj",
					"numinlets" : 3,
					"numoutlets" : 1,
					"outlettype" : [ "int" ],
					"patching_rect" : [ 34.0, 516.170105, 142.0, 22.0 ],
					"style" : "",
					"text" : "lamlib.sethelper"
				}

			}
, 			{
				"box" : 				{
					"button" : 1,
					"fontsize" : 11.0,
					"id" : "obj-1",
					"maxclass" : "tab",
					"numinlets" : 1,
					"numoutlets" : 3,
					"outlettype" : [ "int", "", "" ],
					"parameter_enable" : 0,
					"patching_rect" : [ 210.0, 165.0, 179.0, 527.483215 ],
					"style" : "",
					"tabs" : [ "LAM.indexToCoord", "LAM.intbetween", "LAM.interpolist", "LAM.jit.bounded_sigmoid", "LAM.list.bfade", "LAM.list.find", "LAM.list.ncg", "LAM.list.spread", "LAM.list.xfade", "LAM.namey", "LAM.energizer", "LAM.notepress", "LAM.pa2si", "LAM.pivot2d", "LAM.poscale2rect", "LAM.pravg", "LAM.pv2si", "LAM.quantizattack", "LAM.quantize.cat", "LAM.quantize.dog", "LAM.r2d", "LAM.ratiotrans", "LAM.ravg", "LAM.rect2poscale", "LAM.scalarProduct", "LAM.scroller", "LAM.showip", "LAM.speedgate", "LAM.taptempo", "LAM.toLowerCase", "LAM.toUpperCase", "LAM.transratio", "LAM.vproduct", "LAM.wc2re", "LAM.wrappinterval", "LAM.xy2lr" ]
				}

			}
, 			{
				"box" : 				{
					"fontname" : "Verdana",
					"fontsize" : 10.0,
					"id" : "obj-127",
					"maxclass" : "comment",
					"numinlets" : 1,
					"numoutlets" : 0,
					"patching_rect" : [ 465.0, 151.5, 64.0, 19.0 ],
					"style" : "",
					"text" : "EXAMPLES"
				}

			}
, 			{
				"box" : 				{
					"button" : 1,
					"fontsize" : 11.0,
					"id" : "obj-124",
					"maxclass" : "tab",
					"numinlets" : 1,
					"numoutlets" : 3,
					"outlettype" : [ "int", "", "" ],
					"parameter_enable" : 0,
					"patching_rect" : [ 990.0, 165.0, 180.0, 472.34021 ],
					"style" : "",
					"tabs" : [ "LAM.jit.poltocar", "LAM.jit.cartopol", "LAM.jit.sphertocar", "LAM.jit.cartospher", "LAM.jit.submatrix.select", "LAM.jit.submatrix.fill", "LAM.polytexture", "LAM.jit.gl.squaremesh", "LAM.jit.gl.circlemesh", "LAM.jit.roundedpolygon", "LAM.jit.lfade", "LAM.jit.bfade", "LAM.jit.pa2si", "LAM.jit.pv2si", "LAM.jit.mirror.plane", "LAM.jit.mirror.quadratic", "LAM.jit.norm", "LAM.jit.sum", "LAM.jit.dimsum", "LAM.jit.dim.dotproduct", "LAM.jit.plane.dotproduct", "LAM.jit.slitscan", "LAM.jit.gl.slitscan", "LAM.jit.gl.dyncanvas", "LAM.jit.sigmofade", "LAM.jit.HaarDecomposition", "LAM.jit.polar.xfade", "LAM.jit.gl.textureset", "LAM.jit.oplist", "LAM.jit.perimeter", "LAM.jit.shoelacearea", "LAM.jit.compactness" ]
				}

			}
, 			{
				"box" : 				{
					"fontname" : "Verdana",
					"fontsize" : 10.0,
					"id" : "obj-125",
					"maxclass" : "comment",
					"numinlets" : 1,
					"numoutlets" : 0,
					"patching_rect" : [ 1028.0, 150.0, 104.0, 19.0 ],
					"style" : "",
					"text" : "JITTER FUNCTION"
				}

			}
, 			{
				"box" : 				{
					"button" : 1,
					"fontsize" : 11.0,
					"id" : "obj-122",
					"maxclass" : "tab",
					"numinlets" : 1,
					"numoutlets" : 3,
					"outlettype" : [ "int", "", "" ],
					"parameter_enable" : 0,
					"patching_rect" : [ 795.0, 549.170105, 180.0, 103.170105 ],
					"style" : "",
					"tabs" : [ "LAM.jit.gl.circularwave~", "LAM.jit.gl.DSW~", "LAM.jit.3dscope~", "LAM.jit.gl.spectroscope", "LAM.jit.gl.waveform~", "LAM.AVlooper.rec~", "LAM.AVlooper.play~" ]
				}

			}
, 			{
				"box" : 				{
					"fontname" : "Verdana",
					"fontsize" : 10.0,
					"id" : "obj-123",
					"maxclass" : "comment",
					"numinlets" : 1,
					"numoutlets" : 0,
					"patching_rect" : [ 825.0, 533.170105, 128.0, 19.0 ],
					"style" : "",
					"text" : "AUDIO VISUALIZATION"
				}

			}
, 			{
				"box" : 				{
					"button" : 1,
					"fontsize" : 11.0,
					"id" : "obj-121",
					"maxclass" : "tab",
					"numinlets" : 1,
					"numoutlets" : 3,
					"outlettype" : [ "int", "", "" ],
					"parameter_enable" : 0,
					"patching_rect" : [ 600.0, 460.68512, 180.0, 102.31488 ],
					"style" : "",
					"tabs" : [ "LAM.CheapAutotune~", "LAM.dist.tanh~", "LAM.dist.atan~", "LAM.ducker~", "LAM.lowboost~", "LAM.wobblefilter~", "LAM.cheapvocoder~" ]
				}

			}
, 			{
				"box" : 				{
					"button" : 1,
					"fontsize" : 11.0,
					"id" : "obj-119",
					"maxclass" : "tab",
					"numinlets" : 1,
					"numoutlets" : 3,
					"outlettype" : [ "int", "", "" ],
					"parameter_enable" : 0,
					"patching_rect" : [ 609.0, 593.0, 180.0, 85.34021 ],
					"style" : "",
					"tabs" : [ "LAM.jit.verlet", "LAM.Roulette", "LAM.jit.satellites", "LAM.jit.RLEreader", "LAM.jit.GOL.scoreMaker", "LAM.voronoijs" ]
				}

			}
, 			{
				"box" : 				{
					"button" : 1,
					"fontsize" : 11.0,
					"id" : "obj-118",
					"maxclass" : "tab",
					"numinlets" : 1,
					"numoutlets" : 3,
					"outlettype" : [ "int", "", "" ],
					"parameter_enable" : 0,
					"patching_rect" : [ 795.0, 165.0, 180.0, 353.0 ],
					"style" : "",
					"tabs" : [ "LAM.slidems~", "LAM.ntapin~", "LAM.ntapout~", "LAM.crosscorrelation.fft~", "LAM.crosscorrelation.pfft~", "LAM.crosscorrelation.fft.zeropad~", "LAM.PLL~", "LAM.gen.PLL~", "LAM.hysteresis~", "LAM.gen.onepolems~", "LAM.padsr~", "LAM.slopeclip~", "LAM.s2pr~", "LAM.dpr~", "LAM.energizer~", "LAM.anticlick~", "LAM.s-anticlick~", "LAM.fadeoctave~", "LAM.PLL~", "LAM.gen.PLL~", "LAM.%wrap~", "LAM.phasorloop~", "LAM.taptempo~", "LAM.slicereverser~" ]
				}

			}
, 			{
				"box" : 				{
					"button" : 1,
					"fontsize" : 11.0,
					"id" : "obj-116",
					"maxclass" : "tab",
					"numinlets" : 1,
					"numoutlets" : 3,
					"outlettype" : [ "int", "", "" ],
					"parameter_enable" : 0,
					"patching_rect" : [ 405.0, 333.0, 180.0, 15.0 ],
					"style" : "",
					"tabs" : [ "LAM.TUIO.decode" ]
				}

			}
, 			{
				"box" : 				{
					"button" : 1,
					"fontsize" : 11.0,
					"id" : "obj-115",
					"maxclass" : "tab",
					"numinlets" : 1,
					"numoutlets" : 3,
					"outlettype" : [ "int", "", "" ],
					"parameter_enable" : 0,
					"patching_rect" : [ 600.0, 165.0, 180.0, 264.0 ],
					"style" : "",
					"tabs" : [ "LAM.karpizz~", "LAM.gen.karpizz~", "LAM.harmoFM~", "LAM.glissandi~", "LAM.paf~", "LAM.wobblebass~", "LAM.wobblepad~", "LAM.sawcloud~", "LAM.handclap~", "LAM.pulse~", "LAM.simpler~", "LAM.filterSimpler~", "LAM.livelooping~", "LAM.stretcher~", "LAM.ac-supersaw~", "LAM.additive~", "LAM.additiveFM~", "LAM.blowtube~" ]
				}

			}
, 			{
				"box" : 				{
					"button" : 1,
					"fontsize" : 11.0,
					"id" : "obj-114",
					"maxclass" : "tab",
					"numinlets" : 1,
					"numoutlets" : 3,
					"outlettype" : [ "int", "", "" ],
					"parameter_enable" : 0,
					"patching_rect" : [ 405.0, 370.0, 180.0, 148.0 ],
					"style" : "",
					"tabs" : [ "LAM.mpoly.param", "LAM.mpoly.notonoff", "LAM.mpoly.insidepoly", "LAM.rpoly", "LAM.rpoly.route", "LAM.rpoly.insidepoly", "LAM.polytop.router", "LAM.makenoteID", "LAM.polymited", "LAM.MIDI.panic" ]
				}

			}
, 			{
				"box" : 				{
					"button" : 1,
					"fontsize" : 11.0,
					"id" : "obj-113",
					"maxclass" : "tab",
					"numinlets" : 1,
					"numoutlets" : 3,
					"outlettype" : [ "int", "", "" ],
					"parameter_enable" : 0,
					"patching_rect" : [ 405.0, 273.0, 180.0, 45.0 ],
					"style" : "",
					"tabs" : [ "LAM.proba", "LAM.randistlist", "LAM.urndistlist" ]
				}

			}
, 			{
				"box" : 				{
					"button" : 1,
					"fontsize" : 11.0,
					"id" : "obj-112",
					"maxclass" : "tab",
					"numinlets" : 1,
					"numoutlets" : 3,
					"outlettype" : [ "int", "", "" ],
					"parameter_enable" : 0,
					"patching_rect" : [ 15.0, 165.0, 177.9375, 527.483215 ],
					"style" : "",
					"tabs" : [ "LAM.%wrap", "LAM.2d_index", "LAM.EqualLoudnessCurve", "LAM.LAOS", "LAM.LAOS", "LAM.OSC-monoroute", "LAM.OSC-multiroute", "LAM.OSC.leveldown", "LAM.OSC.levelup", "LAM.OSC2dict", "LAM.addeltaclip", "LAM.addeltaclip", "LAM.anyrotate", "LAM.ascii2utf8", "LAM.baglist", "LAM.bounded_pseudosigmoid", "LAM.bounded_sigmoid", "LAM.bounds", "LAM.bounds.index", "LAM.carrywrap", "LAM.cartohexagrid", "LAM.closest", "LAM.crossProduct", "LAM.d2r", "LAM.dec2bin", "LAM.dec2hex", "LAM.deque", "LAM.dict.reify", "LAM.dotproduct", "LAM.fadeoctave", "LAM.freqtosamps", "LAM.goldenratio", "LAM.grid", "LAM.gridindex", "LAM.hex2dec", "LAM.hysteresis" ]
				}

			}
, 			{
				"box" : 				{
					"fontname" : "Verdana",
					"fontsize" : 10.0,
					"id" : "obj-109",
					"maxclass" : "comment",
					"numinlets" : 1,
					"numoutlets" : 0,
					"patching_rect" : [ 456.0, 258.0, 78.0, 19.0 ],
					"style" : "",
					"text" : "PROBABILITY"
				}

			}
, 			{
				"box" : 				{
					"fontname" : "Verdana",
					"fontsize" : 10.0,
					"id" : "obj-71",
					"maxclass" : "comment",
					"numinlets" : 1,
					"numoutlets" : 0,
					"patching_rect" : [ 465.0, 318.0, 74.0, 19.0 ],
					"style" : "",
					"text" : "INTERFACES"
				}

			}
, 			{
				"box" : 				{
					"fontname" : "Verdana",
					"fontsize" : 10.0,
					"id" : "obj-57",
					"maxclass" : "comment",
					"numinlets" : 1,
					"numoutlets" : 0,
					"patching_rect" : [ 420.0, 355.0, 146.0, 19.0 ],
					"style" : "",
					"text" : "POLYPHONY MANAGEMENT"
				}

			}
, 			{
				"box" : 				{
					"fontname" : "Verdana",
					"fontsize" : 10.0,
					"id" : "obj-46",
					"maxclass" : "comment",
					"numinlets" : 1,
					"numoutlets" : 0,
					"patching_rect" : [ 647.0, 578.0, 104.0, 19.0 ],
					"style" : "",
					"text" : "DYNAMIC MODELS"
				}

			}
, 			{
				"box" : 				{
					"fontname" : "Verdana",
					"fontsize" : 10.0,
					"hidden" : 1,
					"id" : "obj-39",
					"maxclass" : "newobj",
					"numinlets" : 1,
					"numoutlets" : 1,
					"outlettype" : [ "" ],
					"patching_rect" : [ 453.0, 194.085052, 76.0, 21.0 ],
					"style" : "",
					"text" : "prepend load"
				}

			}
, 			{
				"box" : 				{
					"fontname" : "Verdana",
					"fontsize" : 10.0,
					"hidden" : 1,
					"id" : "obj-37",
					"maxclass" : "newobj",
					"numinlets" : 1,
					"numoutlets" : 1,
					"outlettype" : [ "" ],
					"patching_rect" : [ 453.0, 213.085052, 49.0, 21.0 ],
					"style" : "",
					"text" : "pcontrol"
				}

			}
, 			{
				"box" : 				{
					"fontname" : "Verdana",
					"fontsize" : 10.0,
					"id" : "obj-22",
					"maxclass" : "comment",
					"numinlets" : 1,
					"numoutlets" : 0,
					"patching_rect" : [ 618.5, 446.0, 143.0, 19.0 ],
					"style" : "",
					"text" : "AUDIO TRANSFORMATION"
				}

			}
, 			{
				"box" : 				{
					"fontname" : "Verdana",
					"fontsize" : 10.0,
					"id" : "obj-21",
					"maxclass" : "comment",
					"numinlets" : 1,
					"numoutlets" : 0,
					"patching_rect" : [ 835.5, 150.0, 99.0, 19.0 ],
					"style" : "",
					"text" : "AUDIO UTILITIES"
				}

			}
, 			{
				"box" : 				{
					"fontname" : "Verdana",
					"fontsize" : 10.0,
					"id" : "obj-16",
					"maxclass" : "comment",
					"numinlets" : 1,
					"numoutlets" : 0,
					"patching_rect" : [ 637.0, 150.0, 106.0, 19.0 ],
					"style" : "",
					"text" : "AUDIO SYNTHESIS"
				}

			}
, 			{
				"box" : 				{
					"fontname" : "Verdana",
					"fontsize" : 10.0,
					"hidden" : 1,
					"id" : "obj-158",
					"maxclass" : "newobj",
					"numinlets" : 1,
					"numoutlets" : 1,
					"outlettype" : [ "" ],
					"patching_rect" : [ 968.9375, 26.75, 74.0, 21.0 ],
					"style" : "",
					"text" : "prepend help"
				}

			}
, 			{
				"box" : 				{
					"fontname" : "Verdana",
					"fontsize" : 10.0,
					"hidden" : 1,
					"id" : "obj-159",
					"maxclass" : "newobj",
					"numinlets" : 1,
					"numoutlets" : 1,
					"outlettype" : [ "" ],
					"patching_rect" : [ 968.9375, 48.75, 49.0, 21.0 ],
					"style" : "",
					"text" : "pcontrol"
				}

			}
, 			{
				"box" : 				{
					"fontname" : "Verdana",
					"fontsize" : 10.0,
					"id" : "obj-78",
					"maxclass" : "comment",
					"numinlets" : 1,
					"numoutlets" : 0,
					"patching_rect" : [ 41.5, 150.0, 127.0, 19.0 ],
					"style" : "",
					"text" : "TRANSFER FUNCTIONS"
				}

			}
, 			{
				"box" : 				{
					"args" : [ "@obj-name", "LAM.lib", "@obj-desc", "A library for digital lutherie." ],
					"bgmode" : 0,
					"border" : 0,
					"clickthrough" : 0,
					"enablehscroll" : 0,
					"enablevscroll" : 0,
					"id" : "obj-33",
					"lockeddragscroll" : 0,
					"maxclass" : "bpatcher",
					"name" : "LAM.helpheader.maxpat",
					"numinlets" : 1,
					"numoutlets" : 0,
					"offset" : [ 0.0, 0.0 ],
					"patching_rect" : [ 3.78125, 8.75, 306.0, 55.0 ],
					"viewvisibility" : 1
				}

			}
, 			{
				"box" : 				{
					"id" : "obj-2",
					"linecolor" : [ 1.0, 1.0, 1.0, 1.0 ],
					"maxclass" : "live.line",
					"numinlets" : 1,
					"numoutlets" : 0,
					"patching_rect" : [ 3.78125, 70.75, 644.84375, 8.0 ]
				}

			}
, 			{
				"box" : 				{
					"id" : "obj-3",
					"linecolor" : [ 0.0, 0.0, 0.0, 0.3 ],
					"maxclass" : "live.line",
					"numinlets" : 1,
					"numoutlets" : 0,
					"patching_rect" : [ 2.78125, 69.75, 644.84375, 8.0 ]
				}

			}
, 			{
				"box" : 				{
					"id" : "obj-60",
					"linecolor" : [ 1.0, 1.0, 1.0, 1.0 ],
					"maxclass" : "live.line",
					"numinlets" : 1,
					"numoutlets" : 0,
					"patching_rect" : [ 3.78125, 3.75, 644.84375, 8.0 ]
				}

			}
, 			{
				"box" : 				{
					"id" : "obj-61",
					"linecolor" : [ 0.0, 0.0, 0.0, 0.3 ],
					"maxclass" : "live.line",
					"numinlets" : 1,
					"numoutlets" : 0,
					"patching_rect" : [ 2.78125, 2.75, 644.84375, 8.0 ]
				}

			}
, 			{
				"box" : 				{
					"fontname" : "Arial",
					"fontsize" : 7.263873,
					"hidden" : 1,
					"id" : "obj-55",
					"maxclass" : "newobj",
					"numinlets" : 1,
					"numoutlets" : 1,
					"outlettype" : [ "" ],
					"patching_rect" : [ -185.4375, 100.875, 55.0, 17.0 ],
					"style" : "",
					"text" : "loadmess 1"
				}

			}
, 			{
				"box" : 				{
					"fontname" : "Arial",
					"fontsize" : 9.425629,
					"hidden" : 1,
					"id" : "obj-54",
					"maxclass" : "comment",
					"numinlets" : 1,
					"numoutlets" : 0,
					"patching_rect" : [ 13.5, 76.75, 33.28125, 17.0 ],
					"style" : "",
					"text" : "grow"
				}

			}
, 			{
				"box" : 				{
					"fontname" : "Arial",
					"fontsize" : 12.0,
					"hidden" : 1,
					"id" : "obj-52",
					"maxclass" : "newobj",
					"numinlets" : 3,
					"numoutlets" : 3,
					"outlettype" : [ "bang", "bang", "" ],
					"patching_rect" : [ -185.4375, 146.257935, 46.0, 22.0 ],
					"style" : "",
					"text" : "sel 0 1"
				}

			}
, 			{
				"box" : 				{
					"hidden" : 1,
					"id" : "obj-51",
					"maxclass" : "toggle",
					"numinlets" : 1,
					"numoutlets" : 1,
					"outlettype" : [ "int" ],
					"parameter_enable" : 0,
					"patching_rect" : [ 3.78125, 78.525238, 13.0, 13.0 ],
					"style" : ""
				}

			}
, 			{
				"box" : 				{
					"fontname" : "Arial",
					"fontsize" : 11.595187,
					"id" : "obj-19",
					"maxclass" : "comment",
					"numinlets" : 1,
					"numoutlets" : 0,
					"patching_rect" : [ 316.5625, 9.25, 268.5, 19.0 ],
					"style" : "",
					"text" : "© 2013-13 LAM-IJLRA / Universite Paris 6",
					"textcolor" : [ 0.317518, 0.317518, 0.317518, 1.0 ]
				}

			}
, 			{
				"box" : 				{
					"angle" : 0.0,
					"bgcolor" : [ 0.0, 0.0, 0.0, 0.05 ],
					"bordercolor" : [ 0.235294, 0.235294, 0.235294, 0.2 ],
					"id" : "obj-28",
					"maxclass" : "panel",
					"mode" : 0,
					"numinlets" : 1,
					"numoutlets" : 0,
					"patching_rect" : [ 316.5625, 8.75, 268.5, 32.0 ],
					"proportion" : 0.39,
					"rounded" : 6,
					"shadow" : -1,
					"style" : ""
				}

			}
, 			{
				"box" : 				{
					"fontname" : "Arial",
					"fontsize" : 11.595187,
					"hidden" : 1,
					"id" : "obj-13",
					"maxclass" : "message",
					"numinlets" : 2,
					"numoutlets" : 1,
					"outlettype" : [ "" ],
					"patching_rect" : [ -270.9375, 39.75, 177.0, 21.0 ],
					"style" : "",
					"text" : "window flags grow, window exec"
				}

			}
, 			{
				"box" : 				{
					"fontname" : "Arial",
					"fontsize" : 11.595187,
					"hidden" : 1,
					"id" : "obj-6",
					"maxclass" : "message",
					"numinlets" : 2,
					"numoutlets" : 1,
					"outlettype" : [ "" ],
					"patching_rect" : [ -254.4375, 62.75, 190.0, 21.0 ],
					"style" : "",
					"text" : "window flags nogrow, window exec"
				}

			}
, 			{
				"box" : 				{
					"fontname" : "Arial",
					"fontsize" : 12.0,
					"hidden" : 1,
					"id" : "obj-42",
					"maxclass" : "newobj",
					"numinlets" : 4,
					"numoutlets" : 0,
					"patching_rect" : [ -157.0, 245.257935, 143.0, 22.0 ],
					"style" : "",
					"text" : "bgcolor 0.93 0.93 0.92 1."
				}

			}
, 			{
				"box" : 				{
					"fontname" : "Arial",
					"fontsize" : 12.0,
					"id" : "obj-9",
					"maxclass" : "comment",
					"numinlets" : 1,
					"numoutlets" : 0,
					"patching_rect" : [ 422.0625, 43.75, 65.0, 20.0 ],
					"style" : "",
					"text" : "contact us",
					"textcolor" : [ 0.392157, 0.494118, 0.666667, 1.0 ]
				}

			}
, 			{
				"box" : 				{
					"handoff" : "",
					"hilite" : 0,
					"id" : "obj-10",
					"maxclass" : "ubutton",
					"numinlets" : 1,
					"numoutlets" : 4,
					"outlettype" : [ "bang", "bang", "", "int" ],
					"patching_rect" : [ 422.0625, 43.75, 65.0, 20.0 ]
				}

			}
, 			{
				"box" : 				{
					"fontname" : "Arial",
					"fontsize" : 9.160198,
					"hidden" : 1,
					"id" : "obj-11",
					"linecount" : 2,
					"maxclass" : "message",
					"numinlets" : 2,
					"numoutlets" : 1,
					"outlettype" : [ "" ],
					"patching_rect" : [ 660.729187, 42.75, 237.0, 29.0 ],
					"style" : "",
					"text" : ";\rmax launchbrowser http://www.lam.jussieu.fr/Acces.php"
				}

			}
, 			{
				"box" : 				{
					"fontname" : "Arial",
					"fontsize" : 12.0,
					"hidden" : 1,
					"id" : "obj-7",
					"maxclass" : "newobj",
					"numinlets" : 1,
					"numoutlets" : 2,
					"outlettype" : [ "", "" ],
					"patching_rect" : [ -270.9375, 89.25, 69.0, 22.0 ],
					"save" : [ "#N", "thispatcher", ";", "#Q", "end", ";" ],
					"style" : "",
					"text" : "thispatcher"
				}

			}
, 			{
				"box" : 				{
					"fontname" : "Arial",
					"fontsize" : 12.0,
					"id" : "obj-80",
					"maxclass" : "comment",
					"numinlets" : 1,
					"numoutlets" : 0,
					"patching_rect" : [ 317.0625, 43.75, 96.0, 20.0 ],
					"style" : "",
					"text" : "visit our website",
					"textcolor" : [ 0.392157, 0.494118, 0.666667, 1.0 ]
				}

			}
, 			{
				"box" : 				{
					"handoff" : "",
					"hilite" : 0,
					"id" : "obj-63",
					"maxclass" : "ubutton",
					"numinlets" : 1,
					"numoutlets" : 4,
					"outlettype" : [ "bang", "bang", "", "int" ],
					"patching_rect" : [ 317.0625, 43.75, 96.0, 20.0 ]
				}

			}
, 			{
				"box" : 				{
					"fontname" : "Arial",
					"fontsize" : 9.160198,
					"hidden" : 1,
					"id" : "obj-65",
					"linecount" : 2,
					"maxclass" : "message",
					"numinlets" : 2,
					"numoutlets" : 1,
					"outlettype" : [ "" ],
					"patching_rect" : [ 660.729187, 8.75, 191.0, 29.0 ],
					"style" : "",
					"text" : ";\rmax launchbrowser http://www.lam.jussieu.fr"
				}

			}
, 			{
				"box" : 				{
					"fontname" : "Arial",
					"fontsize" : 9.160198,
					"hidden" : 1,
					"id" : "obj-56",
					"maxclass" : "newobj",
					"numinlets" : 1,
					"numoutlets" : 0,
					"patching_rect" : [ -84.9375, 287.0, 45.0, 19.0 ],
					"style" : "",
					"text" : "onecopy"
				}

			}
, 			{
				"box" : 				{
					"fontname" : "Goudy Old Style",
					"fontsize" : 15.0,
					"id" : "obj-5",
					"linecount" : 2,
					"maxclass" : "comment",
					"numinlets" : 1,
					"numoutlets" : 0,
					"patching_rect" : [ 22.9375, 91.875, 1139.0625, 36.0 ],
					"style" : "",
					"text" : "The LAM.lib library is a set of abstractions and externals that are useful to build digital music instrument with Max. This set of objet is mostly made of vanilla max objects, and aims at format stability. However, it is still in a beta version and subject to change. Do not hesistate to send feedback and/or contribute to it !",
					"textcolor" : [ 0.27596, 0.276002, 0.27594, 1.0 ],
					"varname" : "autohelp_top_description"
				}

			}
, 			{
				"box" : 				{
					"angle" : 0.0,
					"bgcolor" : [ 0.94324, 0.954082, 0.954082, 1.0 ],
					"bordercolor" : [ 0.235294, 0.235294, 0.235294, 0.2 ],
					"id" : "obj-26",
					"maxclass" : "panel",
					"mode" : 0,
					"numinlets" : 1,
					"numoutlets" : 0,
					"patching_rect" : [ 12.9375, 83.25, 1149.0625, 57.25 ],
					"proportion" : 0.39,
					"rounded" : 15,
					"shadow" : -1,
					"style" : ""
				}

			}
, 			{
				"box" : 				{
					"angle" : 0.0,
					"bgcolor" : [ 0.0, 0.0, 0.0, 0.05 ],
					"bordercolor" : [ 0.235294, 0.235294, 0.235294, 0.2 ],
					"id" : "obj-67",
					"maxclass" : "panel",
					"mode" : 0,
					"numinlets" : 1,
					"numoutlets" : 0,
					"patching_rect" : [ 317.0625, 43.75, 96.0, 20.0 ],
					"proportion" : 0.39,
					"rounded" : 6,
					"shadow" : -1,
					"style" : ""
				}

			}
, 			{
				"box" : 				{
					"angle" : 0.0,
					"bgcolor" : [ 0.0, 0.0, 0.0, 0.05 ],
					"bordercolor" : [ 0.235294, 0.235294, 0.235294, 0.2 ],
					"id" : "obj-69",
					"maxclass" : "panel",
					"mode" : 0,
					"numinlets" : 1,
					"numoutlets" : 0,
					"patching_rect" : [ 422.0625, 43.75, 65.0, 20.0 ],
					"proportion" : 0.39,
					"rounded" : 6,
					"shadow" : -1,
					"style" : ""
				}

			}
, 			{
				"box" : 				{
					"button" : 1,
					"fontsize" : 11.0,
					"id" : "obj-126",
					"maxclass" : "tab",
					"mode" : 1,
					"numinlets" : 1,
					"numoutlets" : 3,
					"outlettype" : [ "int", "", "" ],
					"parameter_enable" : 0,
					"patching_rect" : [ 405.0, 165.0, 178.0, 88.170105 ],
					"style" : "",
					"tabs" : [ "LAM.pitch.processing", "LAM.gen~.utilities", "LAM.PolarMapping", "LAM.jit.gl.2d.magnifier", "LAM.TactileFeedback", "LAM.AVlooper" ]
				}

			}
 ],
		"lines" : [ 			{
				"patchline" : 				{
					"destination" : [ "obj-4", 2 ],
					"disabled" : 0,
					"hidden" : 1,
					"source" : [ "obj-1", 2 ]
				}

			}
, 			{
				"patchline" : 				{
					"destination" : [ "obj-4", 1 ],
					"disabled" : 0,
					"hidden" : 1,
					"source" : [ "obj-1", 1 ]
				}

			}
, 			{
				"patchline" : 				{
					"destination" : [ "obj-4", 0 ],
					"disabled" : 0,
					"hidden" : 1,
					"source" : [ "obj-1", 0 ]
				}

			}
, 			{
				"patchline" : 				{
					"destination" : [ "obj-11", 0 ],
					"disabled" : 0,
					"hidden" : 1,
					"source" : [ "obj-10", 1 ]
				}

			}
, 			{
				"patchline" : 				{
					"destination" : [ "obj-48", 2 ],
					"disabled" : 0,
					"hidden" : 1,
					"source" : [ "obj-112", 2 ]
				}

			}
, 			{
				"patchline" : 				{
					"destination" : [ "obj-48", 1 ],
					"disabled" : 0,
					"hidden" : 1,
					"source" : [ "obj-112", 1 ]
				}

			}
, 			{
				"patchline" : 				{
					"destination" : [ "obj-48", 0 ],
					"disabled" : 0,
					"hidden" : 1,
					"source" : [ "obj-112", 0 ]
				}

			}
, 			{
				"patchline" : 				{
					"destination" : [ "obj-29", 2 ],
					"disabled" : 0,
					"hidden" : 1,
					"source" : [ "obj-113", 2 ]
				}

			}
, 			{
				"patchline" : 				{
					"destination" : [ "obj-29", 1 ],
					"disabled" : 0,
					"hidden" : 1,
					"source" : [ "obj-113", 1 ]
				}

			}
, 			{
				"patchline" : 				{
					"destination" : [ "obj-29", 0 ],
					"disabled" : 0,
					"hidden" : 1,
					"source" : [ "obj-113", 0 ]
				}

			}
, 			{
				"patchline" : 				{
					"destination" : [ "obj-12", 2 ],
					"disabled" : 0,
					"hidden" : 1,
					"source" : [ "obj-114", 2 ]
				}

			}
, 			{
				"patchline" : 				{
					"destination" : [ "obj-12", 1 ],
					"disabled" : 0,
					"hidden" : 1,
					"source" : [ "obj-114", 1 ]
				}

			}
, 			{
				"patchline" : 				{
					"destination" : [ "obj-12", 0 ],
					"disabled" : 0,
					"hidden" : 1,
					"source" : [ "obj-114", 0 ]
				}

			}
, 			{
				"patchline" : 				{
					"destination" : [ "obj-23", 2 ],
					"disabled" : 0,
					"hidden" : 1,
					"source" : [ "obj-115", 2 ]
				}

			}
, 			{
				"patchline" : 				{
					"destination" : [ "obj-23", 1 ],
					"disabled" : 0,
					"hidden" : 1,
					"source" : [ "obj-115", 1 ]
				}

			}
, 			{
				"patchline" : 				{
					"destination" : [ "obj-23", 0 ],
					"disabled" : 0,
					"hidden" : 1,
					"source" : [ "obj-115", 0 ]
				}

			}
, 			{
				"patchline" : 				{
					"destination" : [ "obj-27", 2 ],
					"disabled" : 0,
					"hidden" : 1,
					"source" : [ "obj-116", 2 ]
				}

			}
, 			{
				"patchline" : 				{
					"destination" : [ "obj-27", 1 ],
					"disabled" : 0,
					"hidden" : 1,
					"source" : [ "obj-116", 1 ]
				}

			}
, 			{
				"patchline" : 				{
					"destination" : [ "obj-27", 0 ],
					"disabled" : 0,
					"hidden" : 1,
					"source" : [ "obj-116", 0 ]
				}

			}
, 			{
				"patchline" : 				{
					"destination" : [ "obj-18", 2 ],
					"disabled" : 0,
					"hidden" : 1,
					"source" : [ "obj-118", 2 ]
				}

			}
, 			{
				"patchline" : 				{
					"destination" : [ "obj-18", 1 ],
					"disabled" : 0,
					"hidden" : 1,
					"source" : [ "obj-118", 1 ]
				}

			}
, 			{
				"patchline" : 				{
					"destination" : [ "obj-18", 0 ],
					"disabled" : 0,
					"hidden" : 1,
					"source" : [ "obj-118", 0 ]
				}

			}
, 			{
				"patchline" : 				{
					"destination" : [ "obj-8", 2 ],
					"disabled" : 0,
					"hidden" : 1,
					"source" : [ "obj-119", 2 ]
				}

			}
, 			{
				"patchline" : 				{
					"destination" : [ "obj-8", 1 ],
					"disabled" : 0,
					"hidden" : 1,
					"source" : [ "obj-119", 1 ]
				}

			}
, 			{
				"patchline" : 				{
					"destination" : [ "obj-8", 0 ],
					"disabled" : 0,
					"hidden" : 1,
					"source" : [ "obj-119", 0 ]
				}

			}
, 			{
				"patchline" : 				{
					"destination" : [ "obj-114", 0 ],
					"disabled" : 0,
					"hidden" : 1,
					"source" : [ "obj-12", 0 ]
				}

			}
, 			{
				"patchline" : 				{
					"destination" : [ "obj-14", 2 ],
					"disabled" : 0,
					"hidden" : 1,
					"source" : [ "obj-121", 2 ]
				}

			}
, 			{
				"patchline" : 				{
					"destination" : [ "obj-14", 1 ],
					"disabled" : 0,
					"hidden" : 1,
					"source" : [ "obj-121", 1 ]
				}

			}
, 			{
				"patchline" : 				{
					"destination" : [ "obj-14", 0 ],
					"disabled" : 0,
					"hidden" : 1,
					"source" : [ "obj-121", 0 ]
				}

			}
, 			{
				"patchline" : 				{
					"destination" : [ "obj-17", 2 ],
					"disabled" : 0,
					"hidden" : 1,
					"source" : [ "obj-122", 2 ]
				}

			}
, 			{
				"patchline" : 				{
					"destination" : [ "obj-17", 1 ],
					"disabled" : 0,
					"hidden" : 1,
					"source" : [ "obj-122", 1 ]
				}

			}
, 			{
				"patchline" : 				{
					"destination" : [ "obj-17", 0 ],
					"disabled" : 0,
					"hidden" : 1,
					"source" : [ "obj-122", 0 ]
				}

			}
, 			{
				"patchline" : 				{
					"destination" : [ "obj-15", 2 ],
					"disabled" : 0,
					"hidden" : 1,
					"source" : [ "obj-124", 2 ]
				}

			}
, 			{
				"patchline" : 				{
					"destination" : [ "obj-15", 1 ],
					"disabled" : 0,
					"hidden" : 1,
					"source" : [ "obj-124", 1 ]
				}

			}
, 			{
				"patchline" : 				{
					"destination" : [ "obj-15", 0 ],
					"disabled" : 0,
					"hidden" : 1,
					"source" : [ "obj-124", 0 ]
				}

			}
, 			{
				"patchline" : 				{
					"destination" : [ "obj-39", 0 ],
					"disabled" : 0,
					"hidden" : 1,
					"source" : [ "obj-126", 1 ]
				}

			}
, 			{
				"patchline" : 				{
					"destination" : [ "obj-7", 0 ],
					"disabled" : 0,
					"hidden" : 1,
					"source" : [ "obj-13", 0 ]
				}

			}
, 			{
				"patchline" : 				{
					"destination" : [ "obj-121", 0 ],
					"disabled" : 0,
					"hidden" : 1,
					"source" : [ "obj-14", 0 ]
				}

			}
, 			{
				"patchline" : 				{
					"destination" : [ "obj-124", 0 ],
					"disabled" : 0,
					"hidden" : 1,
					"source" : [ "obj-15", 0 ]
				}

			}
, 			{
				"patchline" : 				{
					"destination" : [ "obj-159", 0 ],
					"disabled" : 0,
					"hidden" : 1,
					"source" : [ "obj-158", 0 ]
				}

			}
, 			{
				"patchline" : 				{
					"destination" : [ "obj-122", 0 ],
					"disabled" : 0,
					"hidden" : 1,
					"source" : [ "obj-17", 0 ]
				}

			}
, 			{
				"patchline" : 				{
					"destination" : [ "obj-118", 0 ],
					"disabled" : 0,
					"hidden" : 1,
					"source" : [ "obj-18", 0 ]
				}

			}
, 			{
				"patchline" : 				{
					"destination" : [ "obj-115", 0 ],
					"disabled" : 0,
					"hidden" : 1,
					"source" : [ "obj-23", 0 ]
				}

			}
, 			{
				"patchline" : 				{
					"destination" : [ "obj-59", 0 ],
					"disabled" : 0,
					"hidden" : 1,
					"source" : [ "obj-24", 0 ]
				}

			}
, 			{
				"patchline" : 				{
					"destination" : [ "obj-158", 0 ],
					"disabled" : 0,
					"hidden" : 1,
					"source" : [ "obj-25", 0 ]
				}

			}
, 			{
				"patchline" : 				{
					"destination" : [ "obj-116", 0 ],
					"disabled" : 0,
					"hidden" : 1,
					"source" : [ "obj-27", 0 ]
				}

			}
, 			{
				"patchline" : 				{
					"destination" : [ "obj-113", 0 ],
					"disabled" : 0,
					"hidden" : 1,
					"source" : [ "obj-29", 0 ]
				}

			}
, 			{
				"patchline" : 				{
					"destination" : [ "obj-37", 0 ],
					"disabled" : 0,
					"hidden" : 1,
					"source" : [ "obj-39", 0 ]
				}

			}
, 			{
				"patchline" : 				{
					"destination" : [ "obj-1", 0 ],
					"disabled" : 0,
					"hidden" : 1,
					"source" : [ "obj-4", 0 ]
				}

			}
, 			{
				"patchline" : 				{
					"destination" : [ "obj-112", 0 ],
					"disabled" : 0,
					"hidden" : 1,
					"source" : [ "obj-48", 0 ]
				}

			}
, 			{
				"patchline" : 				{
					"destination" : [ "obj-52", 0 ],
					"disabled" : 0,
					"hidden" : 1,
					"source" : [ "obj-51", 0 ]
				}

			}
, 			{
				"patchline" : 				{
					"destination" : [ "obj-13", 0 ],
					"disabled" : 0,
					"hidden" : 1,
					"source" : [ "obj-52", 0 ]
				}

			}
, 			{
				"patchline" : 				{
					"destination" : [ "obj-6", 0 ],
					"disabled" : 0,
					"hidden" : 1,
					"source" : [ "obj-52", 1 ]
				}

			}
, 			{
				"patchline" : 				{
					"destination" : [ "obj-51", 0 ],
					"disabled" : 0,
					"hidden" : 1,
					"source" : [ "obj-55", 0 ]
				}

			}
, 			{
				"patchline" : 				{
					"destination" : [ "obj-7", 0 ],
					"disabled" : 0,
					"hidden" : 1,
					"source" : [ "obj-6", 0 ]
				}

			}
, 			{
				"patchline" : 				{
					"destination" : [ "obj-65", 0 ],
					"disabled" : 0,
					"hidden" : 1,
					"source" : [ "obj-63", 1 ]
				}

			}
, 			{
				"patchline" : 				{
					"destination" : [ "obj-119", 0 ],
					"disabled" : 0,
					"hidden" : 1,
					"source" : [ "obj-8", 0 ]
				}

			}
 ],
		"dependency_cache" : [ 			{
				"name" : "LAM.helpheader.maxpat",
				"bootpath" : "~/Documents/Max/Packages/lam-lib/patchers",
				"type" : "JSON",
				"implicit" : 1
			}
, 			{
				"name" : "lamlib-helper.coll",
				"bootpath" : "~/Documents/Max/Packages/lam-lib/extras",
				"type" : "TEXT",
				"implicit" : 1
			}
, 			{
				"name" : "lamlib.sethelper.maxpat",
				"bootpath" : "~/Documents/Max/Packages/lam-lib/patchers",
				"type" : "JSON",
				"implicit" : 1
			}
 ],
		"autosave" : 0
	}

}
