{
	"patcher" : 	{
		"fileversion" : 1,
		"appversion" : 		{
			"major" : 6,
			"minor" : 1,
			"revision" : 9,
			"architecture" : "x64"
		}
,
		"rect" : [ 7.0, 180.0, 1182.0, 588.0 ],
		"bgcolor" : [ 0.93, 0.93, 0.92, 1.0 ],
		"bglocked" : 0,
		"openinpresentation" : 0,
		"default_fontsize" : 12.0,
		"default_fontface" : 0,
		"default_fontname" : "Arial",
		"gridonopen" : 1,
		"gridsize" : [ 15.0, 15.0 ],
		"gridsnaponopen" : 1,
		"statusbarvisible" : 2,
		"toolbarvisible" : 1,
		"boxanimatetime" : 200,
		"imprint" : 0,
		"enablehscroll" : 1,
		"enablevscroll" : 1,
		"devicewidth" : 0.0,
		"description" : "",
		"digest" : "",
		"tags" : "",
		"boxes" : [ 			{
				"box" : 				{
					"button" : 1,
					"fontname" : "Arial",
					"fontsize" : 11.0,
					"id" : "obj-1",
					"maxclass" : "tab",
					"numinlets" : 1,
					"numoutlets" : 3,
					"outlettype" : [ "int", "", "" ],
					"parameter_enable" : 0,
					"patching_rect" : [ 210.0, 165.0, 179.0, 268.0 ],
					"tabs" : [ "LAM.energizer", "LAM.ravg", "LAM.grid", "LAM.gridindex", "LAM.crossProduct", "LAM.scalarProduct", "LAM.interpolist", "LAM.transratio", "LAM.ratiotrans", "LAM.anyrotate", "LAM.pv2si", "LAM.pa2si", "LAM.LAOS", "LAM.vproduct", "LAM.indexToCoord", "LAM.baglist", "LAM.closest", "LAM.list.find" ]
				}

			}
, 			{
				"box" : 				{
					"button" : 1,
					"fontname" : "Arial",
					"fontsize" : 11.0,
					"id" : "obj-126",
					"maxclass" : "tab",
					"mode" : 1,
					"numinlets" : 1,
					"numoutlets" : 3,
					"outlettype" : [ "int", "", "" ],
					"parameter_enable" : 0,
					"patching_rect" : [ 210.0, 465.0, 190.0, 75.0 ],
					"tabs" : [ "LAM.pitch.processing", "LAM.gen~.utilities", "LAM.PolarMapping", "LAM.jit.gl.2d.magnifier", "LAM.TactileFeedback" ]
				}

			}
, 			{
				"box" : 				{
					"fontname" : "Verdana",
					"fontsize" : 10.0,
					"frgb" : 0.0,
					"id" : "obj-127",
					"maxclass" : "comment",
					"numinlets" : 1,
					"numoutlets" : 0,
					"patching_rect" : [ 268.0, 450.0, 64.0, 19.0 ],
					"text" : "EXAMPLES"
				}

			}
, 			{
				"box" : 				{
					"button" : 1,
					"fontname" : "Arial",
					"fontsize" : 11.0,
					"id" : "obj-124",
					"maxclass" : "tab",
					"numinlets" : 1,
					"numoutlets" : 3,
					"outlettype" : [ "int", "", "" ],
					"parameter_enable" : 0,
					"patching_rect" : [ 990.0, 165.0, 180.0, 404.170105 ],
					"tabs" : [ "LAM.jit.poltocar", "LAM.jit.cartopol", "LAM.jit.sphertocar", "LAM.jit.cartospher", "LAM.jit.submatrix.select", "LAM.jit.submatrix.fill", "LAM.polytexture", "LAM.jit.gl.squaremesh", "LAM.jit.gl.circlemesh", "LAM.jit.roundedpolygon", "LAM.jit.lfade", "LAM.jit.bfade", "LAM.jit.pa2si", "LAM.jit.pv2si", "LAM.jit.mirror.plane", "LAM.jit.mirror.quadratic", "LAM.jit.norm", "LAM.jit.sum", "LAM.jit.dimsum", "LAM.jit.dim.dotproduct", "LAM.jit.plane.dotproduct", "LAM.jit.slitscan", "LAM.jit.gl.slitscan", "LAM.jit.gl.dyncanvas", "LAM.jit.sigmofade", "LAM.jit.HaarDecomposition", "LAM.jit.polar.xfade" ]
				}

			}
, 			{
				"box" : 				{
					"fontname" : "Verdana",
					"fontsize" : 10.0,
					"frgb" : 0.0,
					"id" : "obj-125",
					"maxclass" : "comment",
					"numinlets" : 1,
					"numoutlets" : 0,
					"patching_rect" : [ 1028.0, 150.0, 104.0, 19.0 ],
					"text" : "JITTER FUNCTION"
				}

			}
, 			{
				"box" : 				{
					"button" : 1,
					"fontname" : "Arial",
					"fontsize" : 11.0,
					"id" : "obj-122",
					"maxclass" : "tab",
					"numinlets" : 1,
					"numoutlets" : 3,
					"outlettype" : [ "int", "", "" ],
					"parameter_enable" : 0,
					"patching_rect" : [ 795.0, 435.0, 180.0, 75.0 ],
					"tabs" : [ "LAM.jit.gl.circularwave~", "LAM.jit.gl.DSW~", "LAM.jit.3Dscope~", "LAM.jit.gl.spectroscope", "LAM.jit.gl.waveform~" ]
				}

			}
, 			{
				"box" : 				{
					"fontname" : "Verdana",
					"fontsize" : 10.0,
					"frgb" : 0.0,
					"id" : "obj-123",
					"maxclass" : "comment",
					"numinlets" : 1,
					"numoutlets" : 0,
					"patching_rect" : [ 825.0, 420.0, 128.0, 19.0 ],
					"text" : "AUDIO VISUALIZATION"
				}

			}
, 			{
				"box" : 				{
					"button" : 1,
					"fontname" : "Arial",
					"fontsize" : 11.0,
					"id" : "obj-121",
					"maxclass" : "tab",
					"numinlets" : 1,
					"numoutlets" : 3,
					"outlettype" : [ "int", "", "" ],
					"parameter_enable" : 0,
					"patching_rect" : [ 600.0, 402.68512, 180.0, 92.31488 ],
					"tabs" : [ "LAM.CheapAutotune~", "LAM.dist.tanh~", "LAM.dist.atan~", "LAM.ducker~", "LAM.lowboost~", "LAM.wobblefilter~" ]
				}

			}
, 			{
				"box" : 				{
					"button" : 1,
					"fontname" : "Arial",
					"fontsize" : 11.0,
					"id" : "obj-119",
					"maxclass" : "tab",
					"numinlets" : 1,
					"numoutlets" : 3,
					"outlettype" : [ "int", "", "" ],
					"parameter_enable" : 0,
					"patching_rect" : [ 405.0, 465.0, 180.0, 75.0 ],
					"tabs" : [ "LAM.jit.verlet", "LAM.Roulette", "LAM.jit.satellites", "LAM.jit.RLEreader", "LAM.voronoijs" ]
				}

			}
, 			{
				"box" : 				{
					"button" : 1,
					"fontname" : "Arial",
					"fontsize" : 11.0,
					"id" : "obj-118",
					"maxclass" : "tab",
					"numinlets" : 1,
					"numoutlets" : 3,
					"outlettype" : [ "int", "", "" ],
					"parameter_enable" : 0,
					"patching_rect" : [ 795.0, 165.0, 180.0, 225.0 ],
					"tabs" : [ "LAM.slidems~", "LAM.ntapin~ ", "LAM.ntapout~", "LAM.crosscorrelation.fft~", "LAM.crosscorrelation.pfft~", "LAM.crosscorrelation.fft.zeropad~", "LAM.PLL~", "LAM.gen.PLL~", "LAM.hysteresis~", "LAM.gen.onepolems~", "LAM.padsr~", "LAM.slopeclip~", "LAM.dpr~", "LAM.energizer~", "LAM.anticlick~" ]
				}

			}
, 			{
				"box" : 				{
					"button" : 1,
					"fontname" : "Arial",
					"fontsize" : 11.0,
					"id" : "obj-116",
					"maxclass" : "tab",
					"numinlets" : 1,
					"numoutlets" : 3,
					"outlettype" : [ "int", "", "" ],
					"parameter_enable" : 0,
					"patching_rect" : [ 405.0, 255.0, 180.0, 15.0 ],
					"tabs" : [ "LAM.TUIO.decode" ]
				}

			}
, 			{
				"box" : 				{
					"button" : 1,
					"fontname" : "Arial",
					"fontsize" : 11.0,
					"id" : "obj-115",
					"maxclass" : "tab",
					"numinlets" : 1,
					"numoutlets" : 3,
					"outlettype" : [ "int", "", "" ],
					"parameter_enable" : 0,
					"patching_rect" : [ 600.0, 165.0, 180.0, 195.0 ],
					"tabs" : [ "LAM.karpizz~", "LAM.gen.karpizz~", "LAM.harmoFM~", "LAM.glissandi~", "LAM.paf~", "LAM.wobblebass~", "LAM.wobblepad~", "LAM.sawcloud~", "LAM.handclap~", "LAM.pulse~", "LAM.simpler~", "LAM.filterSimpler~", "LAM.livelooping~" ]
				}

			}
, 			{
				"box" : 				{
					"button" : 1,
					"fontname" : "Arial",
					"fontsize" : 11.0,
					"id" : "obj-114",
					"maxclass" : "tab",
					"numinlets" : 1,
					"numoutlets" : 3,
					"outlettype" : [ "int", "", "" ],
					"parameter_enable" : 0,
					"patching_rect" : [ 405.0, 300.0, 180.0, 120.0 ],
					"tabs" : [ "LAM.mpoly.param", "LAM.mpoly.notonoff", "LAM.mpoly.insidepoly", "LAM.rpoly", "LAM.rpoly.route", "LAM.rpoly.insidepoly", "LAM.polytop.router", "LAM.makenoteID" ]
				}

			}
, 			{
				"box" : 				{
					"button" : 1,
					"fontname" : "Arial",
					"fontsize" : 11.0,
					"id" : "obj-113",
					"maxclass" : "tab",
					"numinlets" : 1,
					"numoutlets" : 3,
					"outlettype" : [ "int", "", "" ],
					"parameter_enable" : 0,
					"patching_rect" : [ 405.0, 165.0, 180.0, 45.0 ],
					"tabs" : [ "LAM.proba", "LAM.randistlist", "LAM.urndistlist" ]
				}

			}
, 			{
				"box" : 				{
					"button" : 1,
					"fontname" : "Arial",
					"fontsize" : 11.0,
					"id" : "obj-112",
					"maxclass" : "tab",
					"numinlets" : 1,
					"numoutlets" : 3,
					"outlettype" : [ "int", "", "" ],
					"parameter_enable" : 0,
					"patching_rect" : [ 15.0, 165.0, 180.0, 390.0 ],
					"tabs" : [ "LAM.bounded_sigmoid", "LAM.bounded_pseudosigmoid", "LAM.jit.bounded_sigmoid", "LAM.quantize.cat", "LAM.quantize.dog", "LAM.rect2poscale", "LAM.poscale2rect", "LAM.xy2lr", "LAM.intbetween", "LAM.2d_index", "LAM.%wrap", "LAM.EqualLoudnessCurve", "LAM.addeltaclip", "LAM.dec2bin", "LAM.cartohexagrid", "LAM.d2r", "LAM.r2d", "LAM.carrywrap", "LAM.hysteresis", "LAM.dotproduct", "LAM.bounds.index", "LAM.bounds", "LAM.freqtosamps", "LAM.list.bfade", "LAM.list.xfade", "LAM.notepress" ]
				}

			}
, 			{
				"box" : 				{
					"fontname" : "Verdana",
					"fontsize" : 10.0,
					"frgb" : 0.0,
					"id" : "obj-109",
					"maxclass" : "comment",
					"numinlets" : 1,
					"numoutlets" : 0,
					"patching_rect" : [ 456.0, 150.0, 78.0, 19.0 ],
					"text" : "PROBABILITY"
				}

			}
, 			{
				"box" : 				{
					"fontname" : "Verdana",
					"fontsize" : 10.0,
					"frgb" : 0.0,
					"id" : "obj-71",
					"maxclass" : "comment",
					"numinlets" : 1,
					"numoutlets" : 0,
					"patching_rect" : [ 465.0, 240.0, 74.0, 19.0 ],
					"text" : "INTERFACES"
				}

			}
, 			{
				"box" : 				{
					"fontname" : "Verdana",
					"fontsize" : 10.0,
					"frgb" : 0.0,
					"id" : "obj-57",
					"maxclass" : "comment",
					"numinlets" : 1,
					"numoutlets" : 0,
					"patching_rect" : [ 420.0, 285.0, 146.0, 19.0 ],
					"text" : "POLYPHONY MANAGEMENT"
				}

			}
, 			{
				"box" : 				{
					"fontname" : "Verdana",
					"fontsize" : 10.0,
					"frgb" : 0.0,
					"id" : "obj-46",
					"maxclass" : "comment",
					"numinlets" : 1,
					"numoutlets" : 0,
					"patching_rect" : [ 443.0, 450.0, 104.0, 19.0 ],
					"text" : "DYNAMIC MODELS"
				}

			}
, 			{
				"box" : 				{
					"fontname" : "Verdana",
					"fontsize" : 10.0,
					"hidden" : 1,
					"id" : "obj-39",
					"maxclass" : "newobj",
					"numinlets" : 1,
					"numoutlets" : 1,
					"outlettype" : [ "" ],
					"patching_rect" : [ 295.5, 550.170105, 76.0, 19.0 ],
					"text" : "prepend load"
				}

			}
, 			{
				"box" : 				{
					"fontname" : "Verdana",
					"fontsize" : 10.0,
					"hidden" : 1,
					"id" : "obj-37",
					"maxclass" : "newobj",
					"numinlets" : 1,
					"numoutlets" : 1,
					"outlettype" : [ "" ],
					"patching_rect" : [ 295.5, 573.483215, 49.0, 19.0 ],
					"text" : "pcontrol"
				}

			}
, 			{
				"box" : 				{
					"fontname" : "Verdana",
					"fontsize" : 10.0,
					"frgb" : 0.0,
					"id" : "obj-22",
					"maxclass" : "comment",
					"numinlets" : 1,
					"numoutlets" : 0,
					"patching_rect" : [ 618.5, 388.0, 143.0, 19.0 ],
					"text" : "AUDIO TRANSFORMATION"
				}

			}
, 			{
				"box" : 				{
					"fontname" : "Verdana",
					"fontsize" : 10.0,
					"frgb" : 0.0,
					"id" : "obj-21",
					"maxclass" : "comment",
					"numinlets" : 1,
					"numoutlets" : 0,
					"patching_rect" : [ 835.5, 150.0, 99.0, 19.0 ],
					"text" : "AUDIO UTILITIES"
				}

			}
, 			{
				"box" : 				{
					"fontname" : "Verdana",
					"fontsize" : 10.0,
					"frgb" : 0.0,
					"id" : "obj-16",
					"maxclass" : "comment",
					"numinlets" : 1,
					"numoutlets" : 0,
					"patching_rect" : [ 637.0, 150.0, 106.0, 19.0 ],
					"text" : "AUDIO SYNTHESIS"
				}

			}
, 			{
				"box" : 				{
					"fontname" : "Verdana",
					"fontsize" : 10.0,
					"hidden" : 1,
					"id" : "obj-158",
					"maxclass" : "newobj",
					"numinlets" : 1,
					"numoutlets" : 1,
					"outlettype" : [ "" ],
					"patching_rect" : [ 603.9375, 558.23877, 74.0, 19.0 ],
					"text" : "prepend help"
				}

			}
, 			{
				"box" : 				{
					"fontname" : "Verdana",
					"fontsize" : 10.0,
					"hidden" : 1,
					"id" : "obj-159",
					"maxclass" : "newobj",
					"numinlets" : 1,
					"numoutlets" : 1,
					"outlettype" : [ "" ],
					"patching_rect" : [ 603.9375, 580.23877, 49.0, 19.0 ],
					"text" : "pcontrol"
				}

			}
, 			{
				"box" : 				{
					"fontname" : "Verdana",
					"fontsize" : 10.0,
					"frgb" : 0.0,
					"id" : "obj-78",
					"maxclass" : "comment",
					"numinlets" : 1,
					"numoutlets" : 0,
					"patching_rect" : [ 41.5, 150.0, 127.0, 19.0 ],
					"text" : "TRANSFER FUNCTIONS"
				}

			}
, 			{
				"box" : 				{
					"args" : [ "@obj-name", "LAM.lib", "@obj-desc", "A library for digital lutherie." ],
					"id" : "obj-33",
					"maxclass" : "bpatcher",
					"name" : "LAM.helpheader.maxpat",
					"numinlets" : 1,
					"numoutlets" : 0,
					"patching_rect" : [ 3.78125, 8.75, 306.0, 55.0 ]
				}

			}
, 			{
				"box" : 				{
					"id" : "obj-2",
					"linecolor" : [ 1.0, 1.0, 1.0, 1.0 ],
					"maxclass" : "live.line",
					"numinlets" : 1,
					"numoutlets" : 0,
					"patching_rect" : [ 3.78125, 70.75, 644.84375, 8.0 ]
				}

			}
, 			{
				"box" : 				{
					"id" : "obj-3",
					"linecolor" : [ 0.0, 0.0, 0.0, 0.3 ],
					"maxclass" : "live.line",
					"numinlets" : 1,
					"numoutlets" : 0,
					"patching_rect" : [ 2.78125, 69.75, 644.84375, 8.0 ]
				}

			}
, 			{
				"box" : 				{
					"id" : "obj-60",
					"linecolor" : [ 1.0, 1.0, 1.0, 1.0 ],
					"maxclass" : "live.line",
					"numinlets" : 1,
					"numoutlets" : 0,
					"patching_rect" : [ 3.78125, 3.75, 644.84375, 8.0 ]
				}

			}
, 			{
				"box" : 				{
					"id" : "obj-61",
					"linecolor" : [ 0.0, 0.0, 0.0, 0.3 ],
					"maxclass" : "live.line",
					"numinlets" : 1,
					"numoutlets" : 0,
					"patching_rect" : [ 2.78125, 2.75, 644.84375, 8.0 ]
				}

			}
, 			{
				"box" : 				{
					"fontname" : "Arial",
					"fontsize" : 7.263873,
					"hidden" : 1,
					"id" : "obj-55",
					"maxclass" : "newobj",
					"numinlets" : 1,
					"numoutlets" : 1,
					"outlettype" : [ "" ],
					"patching_rect" : [ -185.4375, 100.875, 55.0, 15.0 ],
					"text" : "loadmess 1"
				}

			}
, 			{
				"box" : 				{
					"fontname" : "Arial",
					"fontsize" : 9.425629,
					"frgb" : 0.0,
					"hidden" : 1,
					"id" : "obj-54",
					"maxclass" : "comment",
					"numinlets" : 1,
					"numoutlets" : 0,
					"patching_rect" : [ 13.5, 76.75, 33.28125, 17.0 ],
					"text" : "grow"
				}

			}
, 			{
				"box" : 				{
					"fontname" : "Arial",
					"fontsize" : 12.0,
					"hidden" : 1,
					"id" : "obj-52",
					"maxclass" : "newobj",
					"numinlets" : 3,
					"numoutlets" : 3,
					"outlettype" : [ "bang", "bang", "" ],
					"patching_rect" : [ -185.4375, 146.257935, 46.0, 20.0 ],
					"text" : "sel 0 1"
				}

			}
, 			{
				"box" : 				{
					"hidden" : 1,
					"id" : "obj-51",
					"maxclass" : "toggle",
					"numinlets" : 1,
					"numoutlets" : 1,
					"outlettype" : [ "int" ],
					"parameter_enable" : 0,
					"patching_rect" : [ 3.78125, 78.525238, 13.0, 13.0 ]
				}

			}
, 			{
				"box" : 				{
					"fontname" : "Arial",
					"fontsize" : 11.595187,
					"frgb" : 0.0,
					"id" : "obj-19",
					"maxclass" : "comment",
					"numinlets" : 1,
					"numoutlets" : 0,
					"patching_rect" : [ 316.5625, 9.25, 268.5, 19.0 ],
					"text" : "© 2013-13 LAM-IJLRA / Universite Paris 6",
					"textcolor" : [ 0.317518, 0.317518, 0.317518, 1.0 ]
				}

			}
, 			{
				"box" : 				{
					"bgcolor" : [ 0.0, 0.0, 0.0, 0.05 ],
					"bordercolor" : [ 0.235294, 0.235294, 0.235294, 0.2 ],
					"id" : "obj-28",
					"maxclass" : "panel",
					"numinlets" : 1,
					"numoutlets" : 0,
					"patching_rect" : [ 316.5625, 8.75, 268.5, 32.0 ],
					"rounded" : 6,
					"shadow" : -1
				}

			}
, 			{
				"box" : 				{
					"fontname" : "Arial",
					"fontsize" : 11.595187,
					"hidden" : 1,
					"id" : "obj-13",
					"maxclass" : "message",
					"numinlets" : 2,
					"numoutlets" : 1,
					"outlettype" : [ "" ],
					"patching_rect" : [ -270.9375, 39.75, 177.0, 17.0 ],
					"text" : "window flags grow, window exec"
				}

			}
, 			{
				"box" : 				{
					"fontname" : "Arial",
					"fontsize" : 11.595187,
					"hidden" : 1,
					"id" : "obj-6",
					"maxclass" : "message",
					"numinlets" : 2,
					"numoutlets" : 1,
					"outlettype" : [ "" ],
					"patching_rect" : [ -254.4375, 62.75, 190.0, 17.0 ],
					"text" : "window flags nogrow, window exec"
				}

			}
, 			{
				"box" : 				{
					"fontname" : "Arial",
					"fontsize" : 12.0,
					"hidden" : 1,
					"id" : "obj-42",
					"maxclass" : "newobj",
					"numinlets" : 4,
					"numoutlets" : 0,
					"patching_rect" : [ -157.0, 245.257935, 143.0, 20.0 ],
					"text" : "bgcolor 0.93 0.93 0.92 1."
				}

			}
, 			{
				"box" : 				{
					"fontname" : "Arial",
					"fontsize" : 12.0,
					"frgb" : 0.0,
					"id" : "obj-9",
					"maxclass" : "comment",
					"numinlets" : 1,
					"numoutlets" : 0,
					"patching_rect" : [ 422.0625, 43.75, 65.0, 20.0 ],
					"text" : "contact us",
					"textcolor" : [ 0.392157, 0.494118, 0.666667, 1.0 ]
				}

			}
, 			{
				"box" : 				{
					"handoff" : "",
					"hilite" : 0,
					"id" : "obj-10",
					"maxclass" : "ubutton",
					"numinlets" : 1,
					"numoutlets" : 4,
					"outlettype" : [ "bang", "bang", "", "int" ],
					"patching_rect" : [ 422.0625, 43.75, 65.0, 20.0 ]
				}

			}
, 			{
				"box" : 				{
					"fontname" : "Arial",
					"fontsize" : 9.160198,
					"hidden" : 1,
					"id" : "obj-11",
					"linecount" : 2,
					"maxclass" : "message",
					"numinlets" : 2,
					"numoutlets" : 1,
					"outlettype" : [ "" ],
					"patching_rect" : [ 660.729187, 42.75, 237.0, 25.0 ],
					"text" : ";\rmax launchbrowser http://www.lam.jussieu.fr/Acces.php"
				}

			}
, 			{
				"box" : 				{
					"fontname" : "Arial",
					"fontsize" : 12.0,
					"hidden" : 1,
					"id" : "obj-7",
					"maxclass" : "newobj",
					"numinlets" : 1,
					"numoutlets" : 2,
					"outlettype" : [ "", "" ],
					"patching_rect" : [ -270.9375, 89.25, 69.0, 20.0 ],
					"save" : [ "#N", "thispatcher", ";", "#Q", "end", ";" ],
					"text" : "thispatcher"
				}

			}
, 			{
				"box" : 				{
					"fontname" : "Arial",
					"fontsize" : 12.0,
					"frgb" : 0.0,
					"id" : "obj-80",
					"maxclass" : "comment",
					"numinlets" : 1,
					"numoutlets" : 0,
					"patching_rect" : [ 317.0625, 43.75, 96.0, 20.0 ],
					"text" : "visit our website",
					"textcolor" : [ 0.392157, 0.494118, 0.666667, 1.0 ]
				}

			}
, 			{
				"box" : 				{
					"handoff" : "",
					"hilite" : 0,
					"id" : "obj-63",
					"maxclass" : "ubutton",
					"numinlets" : 1,
					"numoutlets" : 4,
					"outlettype" : [ "bang", "bang", "", "int" ],
					"patching_rect" : [ 317.0625, 43.75, 96.0, 20.0 ]
				}

			}
, 			{
				"box" : 				{
					"fontname" : "Arial",
					"fontsize" : 9.160198,
					"hidden" : 1,
					"id" : "obj-65",
					"linecount" : 2,
					"maxclass" : "message",
					"numinlets" : 2,
					"numoutlets" : 1,
					"outlettype" : [ "" ],
					"patching_rect" : [ 660.729187, 8.75, 191.0, 25.0 ],
					"text" : ";\rmax launchbrowser http://www.lam.jussieu.fr"
				}

			}
, 			{
				"box" : 				{
					"fontname" : "Arial",
					"fontsize" : 9.160198,
					"hidden" : 1,
					"id" : "obj-56",
					"maxclass" : "newobj",
					"numinlets" : 1,
					"numoutlets" : 0,
					"patching_rect" : [ -84.9375, 287.0, 45.0, 17.0 ],
					"text" : "onecopy"
				}

			}
, 			{
				"box" : 				{
					"fontname" : "Goudy Old Style",
					"fontsize" : 15.0,
					"frgb" : 0.0,
					"id" : "obj-5",
					"linecount" : 2,
					"maxclass" : "comment",
					"numinlets" : 1,
					"numoutlets" : 0,
					"patching_rect" : [ 22.9375, 94.875, 605.0, 36.0 ],
					"text" : "The LAM.lib library is a set of abstractions and externals that are useful to build digital music instrument with Max.",
					"textcolor" : [ 0.27596, 0.276002, 0.27594, 1.0 ],
					"varname" : "autohelp_top_description"
				}

			}
, 			{
				"box" : 				{
					"bgcolor" : [ 0.94324, 0.954082, 0.954082, 1.0 ],
					"bordercolor" : [ 0.235294, 0.235294, 0.235294, 0.2 ],
					"id" : "obj-26",
					"maxclass" : "panel",
					"numinlets" : 1,
					"numoutlets" : 0,
					"patching_rect" : [ 12.9375, 83.25, 634.6875, 57.25 ],
					"rounded" : 15,
					"shadow" : -1
				}

			}
, 			{
				"box" : 				{
					"bgcolor" : [ 0.0, 0.0, 0.0, 0.05 ],
					"bordercolor" : [ 0.235294, 0.235294, 0.235294, 0.2 ],
					"id" : "obj-67",
					"maxclass" : "panel",
					"numinlets" : 1,
					"numoutlets" : 0,
					"patching_rect" : [ 317.0625, 43.75, 96.0, 20.0 ],
					"rounded" : 6,
					"shadow" : -1
				}

			}
, 			{
				"box" : 				{
					"bgcolor" : [ 0.0, 0.0, 0.0, 0.05 ],
					"bordercolor" : [ 0.235294, 0.235294, 0.235294, 0.2 ],
					"id" : "obj-69",
					"maxclass" : "panel",
					"numinlets" : 1,
					"numoutlets" : 0,
					"patching_rect" : [ 422.0625, 43.75, 65.0, 20.0 ],
					"rounded" : 6,
					"shadow" : -1
				}

			}
 ],
		"lines" : [ 			{
				"patchline" : 				{
					"destination" : [ "obj-158", 0 ],
					"disabled" : 0,
					"hidden" : 1,
					"source" : [ "obj-1", 1 ]
				}

			}
, 			{
				"patchline" : 				{
					"destination" : [ "obj-11", 0 ],
					"disabled" : 0,
					"hidden" : 1,
					"source" : [ "obj-10", 1 ]
				}

			}
, 			{
				"patchline" : 				{
					"destination" : [ "obj-158", 0 ],
					"disabled" : 0,
					"hidden" : 1,
					"source" : [ "obj-112", 1 ]
				}

			}
, 			{
				"patchline" : 				{
					"destination" : [ "obj-158", 0 ],
					"disabled" : 0,
					"hidden" : 1,
					"source" : [ "obj-113", 1 ]
				}

			}
, 			{
				"patchline" : 				{
					"destination" : [ "obj-158", 0 ],
					"disabled" : 0,
					"hidden" : 1,
					"source" : [ "obj-114", 1 ]
				}

			}
, 			{
				"patchline" : 				{
					"destination" : [ "obj-158", 0 ],
					"disabled" : 0,
					"hidden" : 1,
					"source" : [ "obj-115", 1 ]
				}

			}
, 			{
				"patchline" : 				{
					"destination" : [ "obj-158", 0 ],
					"disabled" : 0,
					"hidden" : 1,
					"source" : [ "obj-116", 1 ]
				}

			}
, 			{
				"patchline" : 				{
					"destination" : [ "obj-158", 0 ],
					"disabled" : 0,
					"hidden" : 1,
					"source" : [ "obj-118", 1 ]
				}

			}
, 			{
				"patchline" : 				{
					"destination" : [ "obj-158", 0 ],
					"disabled" : 0,
					"hidden" : 1,
					"source" : [ "obj-119", 1 ]
				}

			}
, 			{
				"patchline" : 				{
					"destination" : [ "obj-158", 0 ],
					"disabled" : 0,
					"hidden" : 1,
					"source" : [ "obj-121", 1 ]
				}

			}
, 			{
				"patchline" : 				{
					"destination" : [ "obj-158", 0 ],
					"disabled" : 0,
					"hidden" : 1,
					"source" : [ "obj-122", 1 ]
				}

			}
, 			{
				"patchline" : 				{
					"destination" : [ "obj-158", 0 ],
					"disabled" : 0,
					"hidden" : 1,
					"source" : [ "obj-124", 1 ]
				}

			}
, 			{
				"patchline" : 				{
					"destination" : [ "obj-39", 0 ],
					"disabled" : 0,
					"hidden" : 1,
					"source" : [ "obj-126", 1 ]
				}

			}
, 			{
				"patchline" : 				{
					"destination" : [ "obj-7", 0 ],
					"disabled" : 0,
					"hidden" : 1,
					"source" : [ "obj-13", 0 ]
				}

			}
, 			{
				"patchline" : 				{
					"destination" : [ "obj-159", 0 ],
					"disabled" : 0,
					"hidden" : 1,
					"source" : [ "obj-158", 0 ]
				}

			}
, 			{
				"patchline" : 				{
					"destination" : [ "obj-37", 0 ],
					"disabled" : 0,
					"hidden" : 1,
					"source" : [ "obj-39", 0 ]
				}

			}
, 			{
				"patchline" : 				{
					"destination" : [ "obj-52", 0 ],
					"disabled" : 0,
					"hidden" : 1,
					"source" : [ "obj-51", 0 ]
				}

			}
, 			{
				"patchline" : 				{
					"destination" : [ "obj-13", 0 ],
					"disabled" : 0,
					"hidden" : 1,
					"source" : [ "obj-52", 0 ]
				}

			}
, 			{
				"patchline" : 				{
					"destination" : [ "obj-6", 0 ],
					"disabled" : 0,
					"hidden" : 1,
					"source" : [ "obj-52", 1 ]
				}

			}
, 			{
				"patchline" : 				{
					"destination" : [ "obj-51", 0 ],
					"disabled" : 0,
					"hidden" : 1,
					"source" : [ "obj-55", 0 ]
				}

			}
, 			{
				"patchline" : 				{
					"destination" : [ "obj-7", 0 ],
					"disabled" : 0,
					"hidden" : 1,
					"source" : [ "obj-6", 0 ]
				}

			}
, 			{
				"patchline" : 				{
					"destination" : [ "obj-65", 0 ],
					"disabled" : 0,
					"hidden" : 1,
					"source" : [ "obj-63", 1 ]
				}

			}
 ],
		"dependency_cache" : [ 			{
				"name" : "LAM.helpheader.maxpat",
				"bootpath" : "/Users/vg/Documents/Max/Packages/lam-lib/patchers",
				"patcherrelativepath" : "../patchers",
				"type" : "JSON",
				"implicit" : 1
			}
 ]
	}

}
